<svg width="250" height="250" viewBox="0 0 250 250" fill="none" xmlns="http://www.w3.org/2000/svg">
<rect width="250" height="250" fill="#1C212A"/>
<circle cx="53" cy="125" r="12" fill="#D6E1F6"/>
<mask id="path-2-outside-1_2_2" maskUnits="userSpaceOnUse" x="46.0699" y="118" width="13" height="14" fill="black">
<rect fill="white" x="46.0699" y="118" width="13" height="14"/>
<path d="M58.8986 131H55.9767L55.13 128.352H50.8966L50.0582 131H47.153L51.486 119.097H54.6652L58.8986 131ZM54.5157 126.293L53.2374 122.292C53.1434 121.994 53.0769 121.637 53.0382 121.222H52.9718C52.9441 121.57 52.875 121.916 52.7643 122.259L51.4694 126.293H54.5157Z"/>
</mask>
<path d="M58.8986 131H55.9767L55.13 128.352H50.8966L50.0582 131H47.153L51.486 119.097H54.6652L58.8986 131ZM54.5157 126.293L53.2374 122.292C53.1434 121.994 53.0769 121.637 53.0382 121.222H52.9718C52.9441 121.57 52.875 121.916 52.7643 122.259L51.4694 126.293H54.5157Z" fill="#1C212A"/>
<path d="M58.8986 131V131.1H59.0403L58.9928 130.966L58.8986 131ZM55.9767 131L55.8814 131.03L55.9037 131.1H55.9767V131ZM55.13 128.352L55.2253 128.322L55.203 128.252H55.13V128.352ZM50.8966 128.352V128.252H50.8234L50.8013 128.322L50.8966 128.352ZM50.0582 131V131.1H50.1315L50.1536 131.03L50.0582 131ZM47.153 131L47.059 130.966L47.0101 131.1H47.153V131ZM51.486 119.097V118.997H51.4159L51.392 119.062L51.486 119.097ZM54.6652 119.097L54.7594 119.063L54.7357 118.997H54.6652V119.097ZM54.5157 126.293V126.393H54.6527L54.611 126.263L54.5157 126.293ZM53.2374 122.292L53.142 122.323L53.1422 122.323L53.2374 122.292ZM53.0382 121.222L53.1378 121.212L53.1293 121.122H53.0382V121.222ZM52.9718 121.222V121.122H52.8794L52.8721 121.214L52.9718 121.222ZM52.7643 122.259L52.6691 122.229L52.6691 122.229L52.7643 122.259ZM51.4694 126.293L51.3741 126.263L51.3322 126.393H51.4694V126.293ZM58.8986 130.9H55.9767V131.1H58.8986V130.9ZM56.0719 130.97L55.2253 128.322L55.0348 128.383L55.8814 131.03L56.0719 130.97ZM55.13 128.252H50.8966V128.452H55.13V128.252ZM50.8013 128.322L49.9629 130.97L50.1536 131.03L50.9919 128.382L50.8013 128.322ZM50.0582 130.9H47.153V131.1H50.0582V130.9ZM47.2469 131.034L51.5799 119.131L51.392 119.062L47.059 130.966L47.2469 131.034ZM51.486 119.197H54.6652V118.997H51.486V119.197ZM54.5709 119.13L58.8043 131.034L58.9928 130.966L54.7594 119.063L54.5709 119.13ZM54.611 126.263L53.3327 122.262L53.1422 122.323L54.4205 126.324L54.611 126.263ZM53.3328 122.262C53.2414 121.972 53.1761 121.623 53.1378 121.212L52.9386 121.231C52.9778 121.651 53.0453 122.015 53.142 122.323L53.3328 122.262ZM53.0382 121.122H52.9718V121.322H53.0382V121.122ZM52.8721 121.214C52.8451 121.554 52.7775 121.893 52.6691 122.229L52.8595 122.29C52.9724 121.94 53.0432 121.586 53.0715 121.23L52.8721 121.214ZM52.6691 122.229L51.3741 126.263L51.5646 126.324L52.8595 122.29L52.6691 122.229ZM51.4694 126.393H54.5157V126.193H51.4694V126.393Z" fill="#1C212A" mask="url(#path-2-outside-1_2_2)"/>
<circle cx="53" cy="173" r="11.5" stroke="#D6E1F6"/>
<mask id="path-5-outside-2_2_2" maskUnits="userSpaceOnUse" x="46.0699" y="166" width="13" height="14" fill="black">
<rect fill="white" x="46.0699" y="166" width="13" height="14"/>
<path d="M58.8986 179H55.9767L55.13 176.352H50.8966L50.0582 179H47.153L51.486 167.097H54.6652L58.8986 179ZM54.5157 174.293L53.2374 170.292C53.1434 169.994 53.0769 169.637 53.0382 169.222H52.9718C52.9441 169.57 52.875 169.916 52.7643 170.259L51.4694 174.293H54.5157Z"/>
</mask>
<path d="M58.8986 179H55.9767L55.13 176.352H50.8966L50.0582 179H47.153L51.486 167.097H54.6652L58.8986 179ZM54.5157 174.293L53.2374 170.292C53.1434 169.994 53.0769 169.637 53.0382 169.222H52.9718C52.9441 169.57 52.875 169.916 52.7643 170.259L51.4694 174.293H54.5157Z" fill="#D6E1F6"/>
<path d="M58.8986 179V179.1H59.0403L58.9928 178.966L58.8986 179ZM55.9767 179L55.8814 179.03L55.9037 179.1H55.9767V179ZM55.13 176.352L55.2253 176.322L55.203 176.252H55.13V176.352ZM50.8966 176.352V176.252H50.8234L50.8013 176.322L50.8966 176.352ZM50.0582 179V179.1H50.1315L50.1536 179.03L50.0582 179ZM47.153 179L47.059 178.966L47.0101 179.1H47.153V179ZM51.486 167.097V166.997H51.4159L51.392 167.062L51.486 167.097ZM54.6652 167.097L54.7594 167.063L54.7357 166.997H54.6652V167.097ZM54.5157 174.293V174.393H54.6527L54.611 174.263L54.5157 174.293ZM53.2374 170.292L53.142 170.323L53.1422 170.323L53.2374 170.292ZM53.0382 169.222L53.1378 169.212L53.1293 169.122H53.0382V169.222ZM52.9718 169.222V169.122H52.8794L52.8721 169.214L52.9718 169.222ZM52.7643 170.259L52.6691 170.229L52.6691 170.229L52.7643 170.259ZM51.4694 174.293L51.3741 174.263L51.3322 174.393H51.4694V174.293ZM58.8986 178.9H55.9767V179.1H58.8986V178.9ZM56.0719 178.97L55.2253 176.322L55.0348 176.383L55.8814 179.03L56.0719 178.97ZM55.13 176.252H50.8966V176.452H55.13V176.252ZM50.8013 176.322L49.9629 178.97L50.1536 179.03L50.9919 176.382L50.8013 176.322ZM50.0582 178.9H47.153V179.1H50.0582V178.9ZM47.2469 179.034L51.5799 167.131L51.392 167.062L47.059 178.966L47.2469 179.034ZM51.486 167.197H54.6652V166.997H51.486V167.197ZM54.5709 167.13L58.8043 179.034L58.9928 178.966L54.7594 167.063L54.5709 167.13ZM54.611 174.263L53.3327 170.262L53.1422 170.323L54.4205 174.324L54.611 174.263ZM53.3328 170.262C53.2414 169.972 53.1761 169.623 53.1378 169.212L52.9386 169.231C52.9778 169.651 53.0453 170.015 53.142 170.323L53.3328 170.262ZM53.0382 169.122H52.9718V169.322H53.0382V169.122ZM52.8721 169.214C52.8451 169.554 52.7775 169.893 52.6691 170.229L52.8595 170.29C52.9724 169.94 53.0432 169.586 53.0715 169.23L52.8721 169.214ZM52.6691 170.229L51.3741 174.263L51.5646 174.324L52.8595 170.29L52.6691 170.229ZM51.4694 174.393H54.5157V174.193H51.4694V174.393Z" fill="#1C212A" mask="url(#path-5-outside-2_2_2)"/>
<circle cx="101" cy="77" r="12" fill="#DA1725"/>
<mask id="path-8-outside-3_2_2" maskUnits="userSpaceOnUse" x="96.5" y="70.25" width="10" height="14" fill="black">
<rect fill="white" x="96.5" y="70.25" width="10" height="14"/>
<path d="M96.8613 83.25V71.3467H101.194C102.522 71.3467 103.543 71.5902 104.257 72.0771C104.971 72.5641 105.328 73.2503 105.328 74.1357C105.328 74.7777 105.11 75.3394 104.672 75.8208C104.241 76.3022 103.687 76.637 103.012 76.8252V76.8584C103.859 76.9635 104.534 77.2762 105.038 77.7964C105.547 78.3166 105.801 78.9502 105.801 79.6973C105.801 80.7874 105.411 81.6535 104.631 82.2954C103.851 82.9318 102.785 83.25 101.435 83.25H96.8613ZM99.5425 73.3223V76.1445H100.721C101.275 76.1445 101.709 76.0117 102.024 75.7461C102.345 75.4749 102.506 75.1042 102.506 74.6338C102.506 73.7594 101.853 73.3223 100.547 73.3223H99.5425ZM99.5425 78.1367V81.2744H100.995C101.615 81.2744 102.099 81.1305 102.448 80.8428C102.802 80.555 102.979 80.1621 102.979 79.6641C102.979 79.1882 102.805 78.8146 102.456 78.5435C102.113 78.2723 101.632 78.1367 101.012 78.1367H99.5425Z"/>
</mask>
<path d="M96.8613 83.25V71.3467H101.194C102.522 71.3467 103.543 71.5902 104.257 72.0771C104.971 72.5641 105.328 73.2503 105.328 74.1357C105.328 74.7777 105.11 75.3394 104.672 75.8208C104.241 76.3022 103.687 76.637 103.012 76.8252V76.8584C103.859 76.9635 104.534 77.2762 105.038 77.7964C105.547 78.3166 105.801 78.9502 105.801 79.6973C105.801 80.7874 105.411 81.6535 104.631 82.2954C103.851 82.9318 102.785 83.25 101.435 83.25H96.8613ZM99.5425 73.3223V76.1445H100.721C101.275 76.1445 101.709 76.0117 102.024 75.7461C102.345 75.4749 102.506 75.1042 102.506 74.6338C102.506 73.7594 101.853 73.3223 100.547 73.3223H99.5425ZM99.5425 78.1367V81.2744H100.995C101.615 81.2744 102.099 81.1305 102.448 80.8428C102.802 80.555 102.979 80.1621 102.979 79.6641C102.979 79.1882 102.805 78.8146 102.456 78.5435C102.113 78.2723 101.632 78.1367 101.012 78.1367H99.5425Z" fill="#1C212A"/>
<path d="M96.8613 83.25H96.7613V83.35H96.8613V83.25ZM96.8613 71.3467V71.2467H96.7613V71.3467H96.8613ZM104.672 75.8208L104.598 75.7536L104.598 75.754L104.672 75.8208ZM103.012 76.8252L102.985 76.7289L102.912 76.7493V76.8252H103.012ZM103.012 76.8584H102.912V76.9467L103 76.9576L103.012 76.8584ZM105.038 77.7964L104.966 77.8659L104.966 77.8663L105.038 77.7964ZM104.631 82.2954L104.694 82.3729L104.694 82.3726L104.631 82.2954ZM99.5425 73.3223V73.2223H99.4425V73.3223H99.5425ZM99.5425 76.1445H99.4425V76.2445H99.5425V76.1445ZM102.024 75.7461L102.089 75.8226L102.089 75.8225L102.024 75.7461ZM99.5425 78.1367V78.0367H99.4425V78.1367H99.5425ZM99.5425 81.2744H99.4425V81.3744H99.5425V81.2744ZM102.448 80.8428L102.385 80.7652L102.384 80.7657L102.448 80.8428ZM102.456 78.5435L102.394 78.6219L102.395 78.6224L102.456 78.5435ZM96.9613 83.25V71.3467H96.7613V83.25H96.9613ZM96.8613 71.4467H101.194V71.2467H96.8613V71.4467ZM101.194 71.4467C102.512 71.4467 103.51 71.6887 104.201 72.1598L104.314 71.9945C103.576 71.4916 102.533 71.2467 101.194 71.2467V71.4467ZM104.201 72.1598C104.887 72.6276 105.228 73.2824 105.228 74.1357H105.428C105.428 73.2182 105.056 72.5007 104.314 71.9945L104.201 72.1598ZM105.228 74.1357C105.228 74.7525 105.019 75.2903 104.598 75.7536L104.746 75.888C105.2 75.3884 105.428 74.8029 105.428 74.1357H105.228ZM104.598 75.754C104.18 76.2201 103.644 76.5454 102.985 76.7289L103.039 76.9215C103.731 76.7287 104.301 76.3844 104.747 75.8876L104.598 75.754ZM102.912 76.8252V76.8584H103.112V76.8252H102.912ZM103 76.9576C103.828 77.0605 104.481 77.365 104.966 77.8659L105.109 77.7268C104.587 77.1874 103.89 76.8666 103.025 76.7592L103 76.9576ZM104.966 77.8663C105.456 78.3673 105.701 78.9756 105.701 79.6973H105.901C105.901 78.9248 105.637 78.2659 105.109 77.7264L104.966 77.8663ZM105.701 79.6973C105.701 80.7602 105.323 81.5969 104.567 82.2182L104.694 82.3726C105.5 81.7101 105.901 80.8146 105.901 79.6973H105.701ZM104.568 82.2179C103.81 82.8355 102.77 83.15 101.435 83.15V83.35C102.8 83.35 103.891 83.0282 104.694 82.3729L104.568 82.2179ZM101.435 83.15H96.8613V83.35H101.435V83.15ZM99.4425 73.3223V76.1445H99.6425V73.3223H99.4425ZM99.5425 76.2445H100.721V76.0445H99.5425V76.2445ZM100.721 76.2445C101.29 76.2445 101.75 76.1079 102.089 75.8226L101.96 75.6696C101.668 75.9155 101.259 76.0445 100.721 76.0445V76.2445ZM102.089 75.8225C102.435 75.5299 102.606 75.1297 102.606 74.6338H102.406C102.406 75.0787 102.255 75.42 101.96 75.6697L102.089 75.8225ZM102.606 74.6338C102.606 74.1677 102.429 73.8065 102.072 73.567C101.721 73.3323 101.208 73.2223 100.547 73.2223V73.4223C101.192 73.4223 101.658 73.5308 101.96 73.7332C102.256 73.9309 102.406 74.2256 102.406 74.6338H102.606ZM100.547 73.2223H99.5425V73.4223H100.547V73.2223ZM99.4425 78.1367V81.2744H99.6425V78.1367H99.4425ZM99.5425 81.3744H100.995V81.1744H99.5425V81.3744ZM100.995 81.3744C101.63 81.3744 102.139 81.2271 102.511 80.9199L102.384 80.7657C102.059 81.034 101.6 81.1744 100.995 81.1744V81.3744ZM102.511 80.9204C102.891 80.6117 103.079 80.1891 103.079 79.6641H102.879C102.879 80.1351 102.713 80.4983 102.385 80.7652L102.511 80.9204ZM103.079 79.6641C103.079 79.1601 102.893 78.7563 102.517 78.4645L102.395 78.6224C102.717 78.873 102.879 79.2163 102.879 79.6641H103.079ZM102.518 78.465C102.151 78.1751 101.645 78.0367 101.012 78.0367V78.2367C101.618 78.2367 102.075 78.3695 102.394 78.6219L102.518 78.465ZM101.012 78.0367H99.5425V78.2367H101.012V78.0367Z" fill="#1C212A" mask="url(#path-8-outside-3_2_2)"/>
<circle cx="101" cy="125" r="12" fill="#D6E1F6"/>
<mask id="path-11-outside-4_2_2" maskUnits="userSpaceOnUse" x="96.5" y="118.25" width="10" height="14" fill="black">
<rect fill="white" x="96.5" y="118.25" width="10" height="14"/>
<path d="M96.8613 131.25V119.347H101.194C102.522 119.347 103.543 119.59 104.257 120.077C104.971 120.564 105.328 121.25 105.328 122.136C105.328 122.778 105.11 123.339 104.672 123.821C104.241 124.302 103.687 124.637 103.012 124.825V124.858C103.859 124.964 104.534 125.276 105.038 125.796C105.547 126.317 105.801 126.95 105.801 127.697C105.801 128.787 105.411 129.653 104.631 130.295C103.851 130.932 102.785 131.25 101.435 131.25H96.8613ZM99.5425 121.322V124.145H100.721C101.275 124.145 101.709 124.012 102.024 123.746C102.345 123.475 102.506 123.104 102.506 122.634C102.506 121.759 101.853 121.322 100.547 121.322H99.5425ZM99.5425 126.137V129.274H100.995C101.615 129.274 102.099 129.131 102.448 128.843C102.802 128.555 102.979 128.162 102.979 127.664C102.979 127.188 102.805 126.815 102.456 126.543C102.113 126.272 101.632 126.137 101.012 126.137H99.5425Z"/>
</mask>
<path d="M96.8613 131.25V119.347H101.194C102.522 119.347 103.543 119.59 104.257 120.077C104.971 120.564 105.328 121.25 105.328 122.136C105.328 122.778 105.11 123.339 104.672 123.821C104.241 124.302 103.687 124.637 103.012 124.825V124.858C103.859 124.964 104.534 125.276 105.038 125.796C105.547 126.317 105.801 126.95 105.801 127.697C105.801 128.787 105.411 129.653 104.631 130.295C103.851 130.932 102.785 131.25 101.435 131.25H96.8613ZM99.5425 121.322V124.145H100.721C101.275 124.145 101.709 124.012 102.024 123.746C102.345 123.475 102.506 123.104 102.506 122.634C102.506 121.759 101.853 121.322 100.547 121.322H99.5425ZM99.5425 126.137V129.274H100.995C101.615 129.274 102.099 129.131 102.448 128.843C102.802 128.555 102.979 128.162 102.979 127.664C102.979 127.188 102.805 126.815 102.456 126.543C102.113 126.272 101.632 126.137 101.012 126.137H99.5425Z" fill="#1C212A"/>
<path d="M96.8613 131.25H96.7613V131.35H96.8613V131.25ZM96.8613 119.347V119.247H96.7613V119.347H96.8613ZM104.672 123.821L104.598 123.754L104.598 123.754L104.672 123.821ZM103.012 124.825L102.985 124.729L102.912 124.749V124.825H103.012ZM103.012 124.858H102.912V124.947L103 124.958L103.012 124.858ZM105.038 125.796L104.966 125.866L104.966 125.866L105.038 125.796ZM104.631 130.295L104.694 130.373L104.694 130.373L104.631 130.295ZM99.5425 121.322V121.222H99.4425V121.322H99.5425ZM99.5425 124.145H99.4425V124.245H99.5425V124.145ZM102.024 123.746L102.089 123.823L102.089 123.822L102.024 123.746ZM99.5425 126.137V126.037H99.4425V126.137H99.5425ZM99.5425 129.274H99.4425V129.374H99.5425V129.274ZM102.448 128.843L102.385 128.765L102.384 128.766L102.448 128.843ZM102.456 126.543L102.394 126.622L102.395 126.622L102.456 126.543ZM96.9613 131.25V119.347H96.7613V131.25H96.9613ZM96.8613 119.447H101.194V119.247H96.8613V119.447ZM101.194 119.447C102.512 119.447 103.51 119.689 104.201 120.16L104.314 119.995C103.576 119.492 102.533 119.247 101.194 119.247V119.447ZM104.201 120.16C104.887 120.628 105.228 121.282 105.228 122.136H105.428C105.428 121.218 105.056 120.501 104.314 119.995L104.201 120.16ZM105.228 122.136C105.228 122.752 105.019 123.29 104.598 123.754L104.746 123.888C105.2 123.388 105.428 122.803 105.428 122.136H105.228ZM104.598 123.754C104.18 124.22 103.644 124.545 102.985 124.729L103.039 124.922C103.731 124.729 104.301 124.384 104.747 123.888L104.598 123.754ZM102.912 124.825V124.858H103.112V124.825H102.912ZM103 124.958C103.828 125.06 104.481 125.365 104.966 125.866L105.109 125.727C104.587 125.187 103.89 124.867 103.025 124.759L103 124.958ZM104.966 125.866C105.456 126.367 105.701 126.976 105.701 127.697H105.901C105.901 126.925 105.637 126.266 105.109 125.726L104.966 125.866ZM105.701 127.697C105.701 128.76 105.323 129.597 104.567 130.218L104.694 130.373C105.5 129.71 105.901 128.815 105.901 127.697H105.701ZM104.568 130.218C103.81 130.835 102.77 131.15 101.435 131.15V131.35C102.8 131.35 103.891 131.028 104.694 130.373L104.568 130.218ZM101.435 131.15H96.8613V131.35H101.435V131.15ZM99.4425 121.322V124.145H99.6425V121.322H99.4425ZM99.5425 124.245H100.721V124.045H99.5425V124.245ZM100.721 124.245C101.29 124.245 101.75 124.108 102.089 123.823L101.96 123.67C101.668 123.916 101.259 124.045 100.721 124.045V124.245ZM102.089 123.822C102.435 123.53 102.606 123.13 102.606 122.634H102.406C102.406 123.079 102.255 123.42 101.96 123.67L102.089 123.822ZM102.606 122.634C102.606 122.168 102.429 121.807 102.072 121.567C101.721 121.332 101.208 121.222 100.547 121.222V121.422C101.192 121.422 101.658 121.531 101.96 121.733C102.256 121.931 102.406 122.226 102.406 122.634H102.606ZM100.547 121.222H99.5425V121.422H100.547V121.222ZM99.4425 126.137V129.274H99.6425V126.137H99.4425ZM99.5425 129.374H100.995V129.174H99.5425V129.374ZM100.995 129.374C101.63 129.374 102.139 129.227 102.511 128.92L102.384 128.766C102.059 129.034 101.6 129.174 100.995 129.174V129.374ZM102.511 128.92C102.891 128.612 103.079 128.189 103.079 127.664H102.879C102.879 128.135 102.713 128.498 102.385 128.765L102.511 128.92ZM103.079 127.664C103.079 127.16 102.893 126.756 102.517 126.465L102.395 126.622C102.717 126.873 102.879 127.216 102.879 127.664H103.079ZM102.518 126.465C102.151 126.175 101.645 126.037 101.012 126.037V126.237C101.618 126.237 102.075 126.369 102.394 126.622L102.518 126.465ZM101.012 126.037H99.5425V126.237H101.012V126.037Z" fill="#1C212A" mask="url(#path-11-outside-4_2_2)"/>
<circle cx="101" cy="173" r="11.5" stroke="#D6E1F6"/>
<mask id="path-14-outside-5_2_2" maskUnits="userSpaceOnUse" x="96.5" y="166.25" width="10" height="14" fill="black">
<rect fill="white" x="96.5" y="166.25" width="10" height="14"/>
<path d="M96.8613 179.25V167.347H101.194C102.522 167.347 103.543 167.59 104.257 168.077C104.971 168.564 105.328 169.25 105.328 170.136C105.328 170.778 105.11 171.339 104.672 171.821C104.241 172.302 103.687 172.637 103.012 172.825V172.858C103.859 172.964 104.534 173.276 105.038 173.796C105.547 174.317 105.801 174.95 105.801 175.697C105.801 176.787 105.411 177.653 104.631 178.295C103.851 178.932 102.785 179.25 101.435 179.25H96.8613ZM99.5425 169.322V172.145H100.721C101.275 172.145 101.709 172.012 102.024 171.746C102.345 171.475 102.506 171.104 102.506 170.634C102.506 169.759 101.853 169.322 100.547 169.322H99.5425ZM99.5425 174.137V177.274H100.995C101.615 177.274 102.099 177.131 102.448 176.843C102.802 176.555 102.979 176.162 102.979 175.664C102.979 175.188 102.805 174.815 102.456 174.543C102.113 174.272 101.632 174.137 101.012 174.137H99.5425Z"/>
</mask>
<path d="M96.8613 179.25V167.347H101.194C102.522 167.347 103.543 167.59 104.257 168.077C104.971 168.564 105.328 169.25 105.328 170.136C105.328 170.778 105.11 171.339 104.672 171.821C104.241 172.302 103.687 172.637 103.012 172.825V172.858C103.859 172.964 104.534 173.276 105.038 173.796C105.547 174.317 105.801 174.95 105.801 175.697C105.801 176.787 105.411 177.653 104.631 178.295C103.851 178.932 102.785 179.25 101.435 179.25H96.8613ZM99.5425 169.322V172.145H100.721C101.275 172.145 101.709 172.012 102.024 171.746C102.345 171.475 102.506 171.104 102.506 170.634C102.506 169.759 101.853 169.322 100.547 169.322H99.5425ZM99.5425 174.137V177.274H100.995C101.615 177.274 102.099 177.131 102.448 176.843C102.802 176.555 102.979 176.162 102.979 175.664C102.979 175.188 102.805 174.815 102.456 174.543C102.113 174.272 101.632 174.137 101.012 174.137H99.5425Z" fill="#D6E1F6"/>
<path d="M96.8613 179.25H96.7613V179.35H96.8613V179.25ZM96.8613 167.347V167.247H96.7613V167.347H96.8613ZM104.672 171.821L104.598 171.754L104.598 171.754L104.672 171.821ZM103.012 172.825L102.985 172.729L102.912 172.749V172.825H103.012ZM103.012 172.858H102.912V172.947L103 172.958L103.012 172.858ZM105.038 173.796L104.966 173.866L104.966 173.866L105.038 173.796ZM104.631 178.295L104.694 178.373L104.694 178.373L104.631 178.295ZM99.5425 169.322V169.222H99.4425V169.322H99.5425ZM99.5425 172.145H99.4425V172.245H99.5425V172.145ZM102.024 171.746L102.089 171.823L102.089 171.822L102.024 171.746ZM99.5425 174.137V174.037H99.4425V174.137H99.5425ZM99.5425 177.274H99.4425V177.374H99.5425V177.274ZM102.448 176.843L102.385 176.765L102.384 176.766L102.448 176.843ZM102.456 174.543L102.394 174.622L102.395 174.622L102.456 174.543ZM96.9613 179.25V167.347H96.7613V179.25H96.9613ZM96.8613 167.447H101.194V167.247H96.8613V167.447ZM101.194 167.447C102.512 167.447 103.51 167.689 104.201 168.16L104.314 167.995C103.576 167.492 102.533 167.247 101.194 167.247V167.447ZM104.201 168.16C104.887 168.628 105.228 169.282 105.228 170.136H105.428C105.428 169.218 105.056 168.501 104.314 167.995L104.201 168.16ZM105.228 170.136C105.228 170.752 105.019 171.29 104.598 171.754L104.746 171.888C105.2 171.388 105.428 170.803 105.428 170.136H105.228ZM104.598 171.754C104.18 172.22 103.644 172.545 102.985 172.729L103.039 172.922C103.731 172.729 104.301 172.384 104.747 171.888L104.598 171.754ZM102.912 172.825V172.858H103.112V172.825H102.912ZM103 172.958C103.828 173.06 104.481 173.365 104.966 173.866L105.109 173.727C104.587 173.187 103.89 172.867 103.025 172.759L103 172.958ZM104.966 173.866C105.456 174.367 105.701 174.976 105.701 175.697H105.901C105.901 174.925 105.637 174.266 105.109 173.726L104.966 173.866ZM105.701 175.697C105.701 176.76 105.323 177.597 104.567 178.218L104.694 178.373C105.5 177.71 105.901 176.815 105.901 175.697H105.701ZM104.568 178.218C103.81 178.835 102.77 179.15 101.435 179.15V179.35C102.8 179.35 103.891 179.028 104.694 178.373L104.568 178.218ZM101.435 179.15H96.8613V179.35H101.435V179.15ZM99.4425 169.322V172.145H99.6425V169.322H99.4425ZM99.5425 172.245H100.721V172.045H99.5425V172.245ZM100.721 172.245C101.29 172.245 101.75 172.108 102.089 171.823L101.96 171.67C101.668 171.916 101.259 172.045 100.721 172.045V172.245ZM102.089 171.822C102.435 171.53 102.606 171.13 102.606 170.634H102.406C102.406 171.079 102.255 171.42 101.96 171.67L102.089 171.822ZM102.606 170.634C102.606 170.168 102.429 169.807 102.072 169.567C101.721 169.332 101.208 169.222 100.547 169.222V169.422C101.192 169.422 101.658 169.531 101.96 169.733C102.256 169.931 102.406 170.226 102.406 170.634H102.606ZM100.547 169.222H99.5425V169.422H100.547V169.222ZM99.4425 174.137V177.274H99.6425V174.137H99.4425ZM99.5425 177.374H100.995V177.174H99.5425V177.374ZM100.995 177.374C101.63 177.374 102.139 177.227 102.511 176.92L102.384 176.766C102.059 177.034 101.6 177.174 100.995 177.174V177.374ZM102.511 176.92C102.891 176.612 103.079 176.189 103.079 175.664H102.879C102.879 176.135 102.713 176.498 102.385 176.765L102.511 176.92ZM103.079 175.664C103.079 175.16 102.893 174.756 102.517 174.465L102.395 174.622C102.717 174.873 102.879 175.216 102.879 175.664H103.079ZM102.518 174.465C102.151 174.175 101.645 174.037 101.012 174.037V174.237C101.618 174.237 102.075 174.369 102.394 174.622L102.518 174.465ZM101.012 174.037H99.5425V174.237H101.012V174.037Z" fill="#1C212A" mask="url(#path-14-outside-5_2_2)"/>
<circle cx="149" cy="77" r="12" fill="#039AC9"/>
<mask id="path-17-outside-6_2_2" maskUnits="userSpaceOnUse" x="142.3" y="70" width="13" height="14" fill="black">
<rect fill="white" x="142.3" y="70" width="13" height="14"/>
<path d="M154.382 83H151.202L149.152 79.1235C149.075 78.9797 148.994 78.714 148.911 78.3267H148.878C148.839 78.5093 148.748 78.786 148.604 79.1567L146.546 83H143.35L147.143 77.0483L143.674 71.0967H146.936L148.637 74.666C148.77 74.9482 148.889 75.283 148.994 75.6704H149.028C149.094 75.438 149.219 75.0921 149.401 74.6328L151.294 71.0967H154.282L150.713 76.9985L154.382 83Z"/>
</mask>
<path d="M154.382 83H151.202L149.152 79.1235C149.075 78.9797 148.994 78.714 148.911 78.3267H148.878C148.839 78.5093 148.748 78.786 148.604 79.1567L146.546 83H143.35L147.143 77.0483L143.674 71.0967H146.936L148.637 74.666C148.77 74.9482 148.889 75.283 148.994 75.6704H149.028C149.094 75.438 149.219 75.0921 149.401 74.6328L151.294 71.0967H154.282L150.713 76.9985L154.382 83Z" fill="#1C212A"/>
<path d="M154.382 83V83.1H154.56L154.467 82.9478L154.382 83ZM151.202 83L151.114 83.0468L151.142 83.1H151.202V83ZM149.152 79.1235L149.24 79.0768L149.24 79.0761L149.152 79.1235ZM148.911 78.3267L149.009 78.3057L148.992 78.2267H148.911V78.3267ZM148.878 78.3267V78.2267H148.797L148.78 78.3059L148.878 78.3267ZM148.604 79.1567L148.693 79.2043L148.697 79.1929L148.604 79.1567ZM146.546 83V83.1H146.606L146.634 83.0472L146.546 83ZM143.35 83L143.266 82.9463L143.168 83.1H143.35V83ZM147.143 77.0483L147.228 77.1021L147.26 77.0507L147.23 76.998L147.143 77.0483ZM143.674 71.0967V70.9967H143.5L143.587 71.147L143.674 71.0967ZM146.936 71.0967L147.026 71.0536L146.999 70.9967H146.936V71.0967ZM148.637 74.666L148.728 74.6234L148.728 74.623L148.637 74.666ZM148.994 75.6704L148.898 75.6966L148.918 75.7704H148.994V75.6704ZM149.028 75.6704V75.7704H149.103L149.124 75.6979L149.028 75.6704ZM149.401 74.6328L149.312 74.5853L149.308 74.5959L149.401 74.6328ZM151.294 71.0967V70.9967H151.234L151.206 71.0495L151.294 71.0967ZM154.282 71.0967L154.368 71.1484L154.459 70.9967H154.282V71.0967ZM150.713 76.9985L150.627 76.9468L150.596 76.9988L150.627 77.0507L150.713 76.9985ZM154.382 82.9H151.202V83.1H154.382V82.9ZM151.291 82.9532L149.24 79.0768L149.064 79.1703L151.114 83.0468L151.291 82.9532ZM149.24 79.0761C149.17 78.9461 149.092 78.6932 149.009 78.3057L148.814 78.3476C148.897 78.7348 148.979 79.0132 149.064 79.1709L149.24 79.0761ZM148.911 78.2267H148.878V78.4267H148.911V78.2267ZM148.78 78.3059C148.743 78.4801 148.655 78.7505 148.511 79.1206L148.697 79.1929C148.842 78.8214 148.935 78.5384 148.976 78.3474L148.78 78.3059ZM148.516 79.1095L146.458 82.9528L146.634 83.0472L148.692 79.204L148.516 79.1095ZM146.546 82.9H143.35V83.1H146.546V82.9ZM143.434 83.0537L147.228 77.1021L147.059 76.9946L143.266 82.9463L143.434 83.0537ZM147.23 76.998L143.76 71.0463L143.587 71.147L147.057 77.0987L147.23 76.998ZM143.674 71.1967H146.936V70.9967H143.674V71.1967ZM146.846 71.1397L148.547 74.709L148.728 74.623L147.026 71.0536L146.846 71.1397ZM148.547 74.7086C148.677 74.9843 148.794 75.3134 148.898 75.6966L149.091 75.6442C148.985 75.2527 148.864 74.9122 148.728 74.6234L148.547 74.7086ZM148.994 75.7704H149.028V75.5704H148.994V75.7704ZM149.124 75.6979C149.189 75.4705 149.312 75.1285 149.494 74.6698L149.308 74.5959C149.125 75.0558 148.999 75.4055 148.931 75.6429L149.124 75.6979ZM149.489 74.68L151.382 71.1439L151.206 71.0495L149.313 74.5856L149.489 74.68ZM151.294 71.1967H154.282V70.9967H151.294V71.1967ZM154.196 71.0449L150.627 76.9468L150.798 77.0503L154.368 71.1484L154.196 71.0449ZM150.627 77.0507L154.296 83.0522L154.467 82.9478L150.798 76.9464L150.627 77.0507Z" fill="#1C212A" mask="url(#path-17-outside-6_2_2)"/>
<circle cx="149" cy="125" r="12" fill="#D6E1F6"/>
<mask id="path-20-outside-7_2_2" maskUnits="userSpaceOnUse" x="142.3" y="118" width="13" height="14" fill="black">
<rect fill="white" x="142.3" y="118" width="13" height="14"/>
<path d="M154.382 131H151.202L149.152 127.124C149.075 126.98 148.994 126.714 148.911 126.327H148.878C148.839 126.509 148.748 126.786 148.604 127.157L146.546 131H143.35L147.143 125.048L143.674 119.097H146.936L148.637 122.666C148.77 122.948 148.889 123.283 148.994 123.67H149.028C149.094 123.438 149.219 123.092 149.401 122.633L151.294 119.097H154.282L150.713 124.999L154.382 131Z"/>
</mask>
<path d="M154.382 131H151.202L149.152 127.124C149.075 126.98 148.994 126.714 148.911 126.327H148.878C148.839 126.509 148.748 126.786 148.604 127.157L146.546 131H143.35L147.143 125.048L143.674 119.097H146.936L148.637 122.666C148.77 122.948 148.889 123.283 148.994 123.67H149.028C149.094 123.438 149.219 123.092 149.401 122.633L151.294 119.097H154.282L150.713 124.999L154.382 131Z" fill="#1C212A"/>
<path d="M154.382 131V131.1H154.56L154.467 130.948L154.382 131ZM151.202 131L151.114 131.047L151.142 131.1H151.202V131ZM149.152 127.124L149.24 127.077L149.24 127.076L149.152 127.124ZM148.911 126.327L149.009 126.306L148.992 126.227H148.911V126.327ZM148.878 126.327V126.227H148.797L148.78 126.306L148.878 126.327ZM148.604 127.157L148.693 127.204L148.697 127.193L148.604 127.157ZM146.546 131V131.1H146.606L146.634 131.047L146.546 131ZM143.35 131L143.266 130.946L143.168 131.1H143.35V131ZM147.143 125.048L147.228 125.102L147.26 125.051L147.23 124.998L147.143 125.048ZM143.674 119.097V118.997H143.5L143.587 119.147L143.674 119.097ZM146.936 119.097L147.026 119.054L146.999 118.997H146.936V119.097ZM148.637 122.666L148.728 122.623L148.728 122.623L148.637 122.666ZM148.994 123.67L148.898 123.697L148.918 123.77H148.994V123.67ZM149.028 123.67V123.77H149.103L149.124 123.698L149.028 123.67ZM149.401 122.633L149.312 122.585L149.308 122.596L149.401 122.633ZM151.294 119.097V118.997H151.234L151.206 119.049L151.294 119.097ZM154.282 119.097L154.368 119.148L154.459 118.997H154.282V119.097ZM150.713 124.999L150.627 124.947L150.596 124.999L150.627 125.051L150.713 124.999ZM154.382 130.9H151.202V131.1H154.382V130.9ZM151.291 130.953L149.24 127.077L149.064 127.17L151.114 131.047L151.291 130.953ZM149.24 127.076C149.17 126.946 149.092 126.693 149.009 126.306L148.814 126.348C148.897 126.735 148.979 127.013 149.064 127.171L149.24 127.076ZM148.911 126.227H148.878V126.427H148.911V126.227ZM148.78 126.306C148.743 126.48 148.655 126.751 148.511 127.121L148.697 127.193C148.842 126.821 148.935 126.538 148.976 126.347L148.78 126.306ZM148.516 127.11L146.458 130.953L146.634 131.047L148.692 127.204L148.516 127.11ZM146.546 130.9H143.35V131.1H146.546V130.9ZM143.434 131.054L147.228 125.102L147.059 124.995L143.266 130.946L143.434 131.054ZM147.23 124.998L143.76 119.046L143.587 119.147L147.057 125.099L147.23 124.998ZM143.674 119.197H146.936V118.997H143.674V119.197ZM146.846 119.14L148.547 122.709L148.728 122.623L147.026 119.054L146.846 119.14ZM148.547 122.709C148.677 122.984 148.794 123.313 148.898 123.697L149.091 123.644C148.985 123.253 148.864 122.912 148.728 122.623L148.547 122.709ZM148.994 123.77H149.028V123.57H148.994V123.77ZM149.124 123.698C149.189 123.47 149.312 123.128 149.494 122.67L149.308 122.596C149.125 123.056 148.999 123.405 148.931 123.643L149.124 123.698ZM149.489 122.68L151.382 119.144L151.206 119.049L149.313 122.586L149.489 122.68ZM151.294 119.197H154.282V118.997H151.294V119.197ZM154.196 119.045L150.627 124.947L150.798 125.05L154.368 119.148L154.196 119.045ZM150.627 125.051L154.296 131.052L154.467 130.948L150.798 124.946L150.627 125.051Z" fill="#1C212A" mask="url(#path-20-outside-7_2_2)"/>
<circle cx="149" cy="173" r="11.5" stroke="#D6E1F6"/>
<mask id="path-23-outside-8_2_2" maskUnits="userSpaceOnUse" x="142.3" y="166" width="13" height="14" fill="black">
<rect fill="white" x="142.3" y="166" width="13" height="14"/>
<path d="M154.382 179H151.202L149.152 175.124C149.075 174.98 148.994 174.714 148.911 174.327H148.878C148.839 174.509 148.748 174.786 148.604 175.157L146.546 179H143.35L147.143 173.048L143.674 167.097H146.936L148.637 170.666C148.77 170.948 148.889 171.283 148.994 171.67H149.028C149.094 171.438 149.219 171.092 149.401 170.633L151.294 167.097H154.282L150.713 172.999L154.382 179Z"/>
</mask>
<path d="M154.382 179H151.202L149.152 175.124C149.075 174.98 148.994 174.714 148.911 174.327H148.878C148.839 174.509 148.748 174.786 148.604 175.157L146.546 179H143.35L147.143 173.048L143.674 167.097H146.936L148.637 170.666C148.77 170.948 148.889 171.283 148.994 171.67H149.028C149.094 171.438 149.219 171.092 149.401 170.633L151.294 167.097H154.282L150.713 172.999L154.382 179Z" fill="#D6E1F6"/>
<path d="M154.382 179V179.1H154.56L154.467 178.948L154.382 179ZM151.202 179L151.114 179.047L151.142 179.1H151.202V179ZM149.152 175.124L149.24 175.077L149.24 175.076L149.152 175.124ZM148.911 174.327L149.009 174.306L148.992 174.227H148.911V174.327ZM148.878 174.327V174.227H148.797L148.78 174.306L148.878 174.327ZM148.604 175.157L148.693 175.204L148.697 175.193L148.604 175.157ZM146.546 179V179.1H146.606L146.634 179.047L146.546 179ZM143.35 179L143.266 178.946L143.168 179.1H143.35V179ZM147.143 173.048L147.228 173.102L147.26 173.051L147.23 172.998L147.143 173.048ZM143.674 167.097V166.997H143.5L143.587 167.147L143.674 167.097ZM146.936 167.097L147.026 167.054L146.999 166.997H146.936V167.097ZM148.637 170.666L148.728 170.623L148.728 170.623L148.637 170.666ZM148.994 171.67L148.898 171.697L148.918 171.77H148.994V171.67ZM149.028 171.67V171.77H149.103L149.124 171.698L149.028 171.67ZM149.401 170.633L149.312 170.585L149.308 170.596L149.401 170.633ZM151.294 167.097V166.997H151.234L151.206 167.049L151.294 167.097ZM154.282 167.097L154.368 167.148L154.459 166.997H154.282V167.097ZM150.713 172.999L150.627 172.947L150.596 172.999L150.627 173.051L150.713 172.999ZM154.382 178.9H151.202V179.1H154.382V178.9ZM151.291 178.953L149.24 175.077L149.064 175.17L151.114 179.047L151.291 178.953ZM149.24 175.076C149.17 174.946 149.092 174.693 149.009 174.306L148.814 174.348C148.897 174.735 148.979 175.013 149.064 175.171L149.24 175.076ZM148.911 174.227H148.878V174.427H148.911V174.227ZM148.78 174.306C148.743 174.48 148.655 174.751 148.511 175.121L148.697 175.193C148.842 174.821 148.935 174.538 148.976 174.347L148.78 174.306ZM148.516 175.11L146.458 178.953L146.634 179.047L148.692 175.204L148.516 175.11ZM146.546 178.9H143.35V179.1H146.546V178.9ZM143.434 179.054L147.228 173.102L147.059 172.995L143.266 178.946L143.434 179.054ZM147.23 172.998L143.76 167.046L143.587 167.147L147.057 173.099L147.23 172.998ZM143.674 167.197H146.936V166.997H143.674V167.197ZM146.846 167.14L148.547 170.709L148.728 170.623L147.026 167.054L146.846 167.14ZM148.547 170.709C148.677 170.984 148.794 171.313 148.898 171.697L149.091 171.644C148.985 171.253 148.864 170.912 148.728 170.623L148.547 170.709ZM148.994 171.77H149.028V171.57H148.994V171.77ZM149.124 171.698C149.189 171.47 149.312 171.128 149.494 170.67L149.308 170.596C149.125 171.056 148.999 171.405 148.931 171.643L149.124 171.698ZM149.489 170.68L151.382 167.144L151.206 167.049L149.313 170.586L149.489 170.68ZM151.294 167.197H154.282V166.997H151.294V167.197ZM154.196 167.045L150.627 172.947L150.798 173.05L154.368 167.148L154.196 167.045ZM150.627 173.051L154.296 179.052L154.467 178.948L150.798 172.946L150.627 173.051Z" fill="#1C212A" mask="url(#path-23-outside-8_2_2)"/>
<circle cx="197" cy="77" r="12" fill="#F1D514"/>
<mask id="path-26-outside-9_2_2" maskUnits="userSpaceOnUse" x="190.75" y="70.5" width="12" height="14" fill="black">
<rect fill="white" x="190.75" y="70.5" width="12" height="14"/>
<path d="M202.084 71.5967L198.208 79.2666V83.5H195.527V79.3164L191.75 71.5967H194.813L196.73 76.0376C196.764 76.1206 196.855 76.4443 197.004 77.0088H197.038C197.11 76.6104 197.195 76.2977 197.295 76.0708L199.246 71.5967H202.084Z"/>
</mask>
<path d="M202.084 71.5967L198.208 79.2666V83.5H195.527V79.3164L191.75 71.5967H194.813L196.73 76.0376C196.764 76.1206 196.855 76.4443 197.004 77.0088H197.038C197.11 76.6104 197.195 76.2977 197.295 76.0708L199.246 71.5967H202.084Z" fill="#1C212A"/>
<path d="M202.084 71.5967L202.174 71.6418L202.247 71.4967H202.084V71.5967ZM198.208 79.2666L198.119 79.2215L198.108 79.2428V79.2666H198.208ZM198.208 83.5V83.6H198.308V83.5H198.208ZM195.527 83.5H195.427V83.6H195.527V83.5ZM195.527 79.3164H195.627V79.2933L195.617 79.2725L195.527 79.3164ZM191.75 71.5967V71.4967H191.59L191.66 71.6406L191.75 71.5967ZM194.813 71.5967L194.905 71.557L194.879 71.4967H194.813V71.5967ZM196.73 76.0376L196.823 76.0004L196.822 75.998L196.73 76.0376ZM197.004 77.0088L196.908 77.0344L196.927 77.1088H197.004V77.0088ZM197.038 77.0088V77.1088H197.121L197.136 77.0266L197.038 77.0088ZM197.295 76.0708L197.386 76.111L197.387 76.1108L197.295 76.0708ZM199.246 71.5967V71.4967H199.18L199.154 71.5567L199.246 71.5967ZM201.995 71.5516L198.119 79.2215L198.297 79.3117L202.174 71.6418L201.995 71.5516ZM198.108 79.2666V83.5H198.308V79.2666H198.108ZM198.208 83.4H195.527V83.6H198.208V83.4ZM195.627 83.5V79.3164H195.427V83.5H195.627ZM195.617 79.2725L191.84 71.5527L191.66 71.6406L195.437 79.3604L195.617 79.2725ZM191.75 71.6967H194.813V71.4967H191.75V71.6967ZM194.721 71.6363L196.639 76.0772L196.822 75.998L194.905 71.557L194.721 71.6363ZM196.638 76.0747C196.668 76.1505 196.757 76.466 196.908 77.0344L197.101 76.9832C196.953 76.4227 196.859 76.0907 196.823 76.0005L196.638 76.0747ZM197.004 77.1088H197.038V76.9088H197.004V77.1088ZM197.136 77.0266C197.207 76.6316 197.291 76.3276 197.386 76.111L197.203 76.0306C197.099 76.2677 197.012 76.5891 196.939 76.991L197.136 77.0266ZM197.387 76.1108L199.337 71.6366L199.154 71.5567L197.203 76.0308L197.387 76.1108ZM199.246 71.6967H202.084V71.4967H199.246V71.6967Z" fill="#1C212A" mask="url(#path-26-outside-9_2_2)"/>
<circle cx="197" cy="125" r="12" fill="#D6E1F6"/>
<mask id="path-29-outside-10_2_2" maskUnits="userSpaceOnUse" x="190.75" y="118.5" width="12" height="14" fill="black">
<rect fill="white" x="190.75" y="118.5" width="12" height="14"/>
<path d="M202.084 119.597L198.208 127.267V131.5H195.527V127.316L191.75 119.597H194.813L196.73 124.038C196.764 124.121 196.855 124.444 197.004 125.009H197.038C197.11 124.61 197.195 124.298 197.295 124.071L199.246 119.597H202.084Z"/>
</mask>
<path d="M202.084 119.597L198.208 127.267V131.5H195.527V127.316L191.75 119.597H194.813L196.73 124.038C196.764 124.121 196.855 124.444 197.004 125.009H197.038C197.11 124.61 197.195 124.298 197.295 124.071L199.246 119.597H202.084Z" fill="#1C212A"/>
<path d="M202.084 119.597L202.174 119.642L202.247 119.497H202.084V119.597ZM198.208 127.267L198.119 127.221L198.108 127.243V127.267H198.208ZM198.208 131.5V131.6H198.308V131.5H198.208ZM195.527 131.5H195.427V131.6H195.527V131.5ZM195.527 127.316H195.627V127.293L195.617 127.272L195.527 127.316ZM191.75 119.597V119.497H191.59L191.66 119.641L191.75 119.597ZM194.813 119.597L194.905 119.557L194.879 119.497H194.813V119.597ZM196.73 124.038L196.823 124L196.822 123.998L196.73 124.038ZM197.004 125.009L196.908 125.034L196.927 125.109H197.004V125.009ZM197.038 125.009V125.109H197.121L197.136 125.027L197.038 125.009ZM197.295 124.071L197.386 124.111L197.387 124.111L197.295 124.071ZM199.246 119.597V119.497H199.18L199.154 119.557L199.246 119.597ZM201.995 119.552L198.119 127.221L198.297 127.312L202.174 119.642L201.995 119.552ZM198.108 127.267V131.5H198.308V127.267H198.108ZM198.208 131.4H195.527V131.6H198.208V131.4ZM195.627 131.5V127.316H195.427V131.5H195.627ZM195.617 127.272L191.84 119.553L191.66 119.641L195.437 127.36L195.617 127.272ZM191.75 119.697H194.813V119.497H191.75V119.697ZM194.721 119.636L196.639 124.077L196.822 123.998L194.905 119.557L194.721 119.636ZM196.638 124.075C196.668 124.15 196.757 124.466 196.908 125.034L197.101 124.983C196.953 124.423 196.859 124.091 196.823 124L196.638 124.075ZM197.004 125.109H197.038V124.909H197.004V125.109ZM197.136 125.027C197.207 124.632 197.291 124.328 197.386 124.111L197.203 124.031C197.099 124.268 197.012 124.589 196.939 124.991L197.136 125.027ZM197.387 124.111L199.337 119.637L199.154 119.557L197.203 124.031L197.387 124.111ZM199.246 119.697H202.084V119.497H199.246V119.697Z" fill="#1C212A" mask="url(#path-29-outside-10_2_2)"/>
<circle cx="197" cy="173" r="11.5" stroke="#D6E1F6"/>
<mask id="path-32-outside-11_2_2" maskUnits="userSpaceOnUse" x="190.75" y="166.5" width="12" height="14" fill="black">
<rect fill="white" x="190.75" y="166.5" width="12" height="14"/>
<path d="M202.084 167.597L198.208 175.267V179.5H195.527V175.316L191.75 167.597H194.813L196.73 172.038C196.764 172.121 196.855 172.444 197.004 173.009H197.038C197.11 172.61 197.195 172.298 197.295 172.071L199.246 167.597H202.084Z"/>
</mask>
<path d="M202.084 167.597L198.208 175.267V179.5H195.527V175.316L191.75 167.597H194.813L196.73 172.038C196.764 172.121 196.855 172.444 197.004 173.009H197.038C197.11 172.61 197.195 172.298 197.295 172.071L199.246 167.597H202.084Z" fill="#D6E1F6"/>
<path d="M202.084 167.597L202.174 167.642L202.247 167.497H202.084V167.597ZM198.208 175.267L198.119 175.221L198.108 175.243V175.267H198.208ZM198.208 179.5V179.6H198.308V179.5H198.208ZM195.527 179.5H195.427V179.6H195.527V179.5ZM195.527 175.316H195.627V175.293L195.617 175.272L195.527 175.316ZM191.75 167.597V167.497H191.59L191.66 167.641L191.75 167.597ZM194.813 167.597L194.905 167.557L194.879 167.497H194.813V167.597ZM196.73 172.038L196.823 172L196.822 171.998L196.73 172.038ZM197.004 173.009L196.908 173.034L196.927 173.109H197.004V173.009ZM197.038 173.009V173.109H197.121L197.136 173.027L197.038 173.009ZM197.295 172.071L197.386 172.111L197.387 172.111L197.295 172.071ZM199.246 167.597V167.497H199.18L199.154 167.557L199.246 167.597ZM201.995 167.552L198.119 175.221L198.297 175.312L202.174 167.642L201.995 167.552ZM198.108 175.267V179.5H198.308V175.267H198.108ZM198.208 179.4H195.527V179.6H198.208V179.4ZM195.627 179.5V175.316H195.427V179.5H195.627ZM195.617 175.272L191.84 167.553L191.66 167.641L195.437 175.36L195.617 175.272ZM191.75 167.697H194.813V167.497H191.75V167.697ZM194.721 167.636L196.639 172.077L196.822 171.998L194.905 167.557L194.721 167.636ZM196.638 172.075C196.668 172.15 196.757 172.466 196.908 173.034L197.101 172.983C196.953 172.423 196.859 172.091 196.823 172L196.638 172.075ZM197.004 173.109H197.038V172.909H197.004V173.109ZM197.136 173.027C197.207 172.632 197.291 172.328 197.386 172.111L197.203 172.031C197.099 172.268 197.012 172.589 196.939 172.991L197.136 173.027ZM197.387 172.111L199.337 167.637L199.154 167.557L197.203 172.031L197.387 172.111ZM199.246 167.697H202.084V167.497H199.246V167.697Z" fill="#1C212A" mask="url(#path-32-outside-11_2_2)"/>
<circle cx="53" cy="77" r="12" fill="#55A43B"/>
<mask id="path-35-outside-12_2_2" maskUnits="userSpaceOnUse" x="46.0699" y="70" width="13" height="14" fill="black">
<rect fill="white" x="46.0699" y="70" width="13" height="14"/>
<path d="M58.8986 83H55.9767L55.13 80.3521H50.8966L50.0582 83H47.153L51.486 71.0967H54.6652L58.8986 83ZM54.5157 78.2935L53.2374 74.2925C53.1434 73.9937 53.0769 73.6367 53.0382 73.2217H52.9718C52.9441 73.5703 52.875 73.9162 52.7643 74.2593L51.4694 78.2935H54.5157Z"/>
</mask>
<path d="M58.8986 83H55.9767L55.13 80.3521H50.8966L50.0582 83H47.153L51.486 71.0967H54.6652L58.8986 83ZM54.5157 78.2935L53.2374 74.2925C53.1434 73.9937 53.0769 73.6367 53.0382 73.2217H52.9718C52.9441 73.5703 52.875 73.9162 52.7643 74.2593L51.4694 78.2935H54.5157Z" fill="#1C212A"/>
<path d="M58.8986 83V83.1H59.0403L58.9928 82.9665L58.8986 83ZM55.9767 83L55.8814 83.0305L55.9037 83.1H55.9767V83ZM55.13 80.3521L55.2253 80.3216L55.203 80.2521H55.13V80.3521ZM50.8966 80.3521V80.2521H50.8234L50.8013 80.3219L50.8966 80.3521ZM50.0582 83V83.1H50.1315L50.1536 83.0302L50.0582 83ZM47.153 83L47.059 82.9658L47.0101 83.1H47.153V83ZM51.486 71.0967V70.9967H51.4159L51.392 71.0625L51.486 71.0967ZM54.6652 71.0967L54.7594 71.0632L54.7357 70.9967H54.6652V71.0967ZM54.5157 78.2935V78.3935H54.6527L54.611 78.263L54.5157 78.2935ZM53.2374 74.2925L53.142 74.3225L53.1422 74.3229L53.2374 74.2925ZM53.0382 73.2217L53.1378 73.2124L53.1293 73.1217H53.0382V73.2217ZM52.9718 73.2217V73.1217H52.8794L52.8721 73.2138L52.9718 73.2217ZM52.7643 74.2593L52.6691 74.2286L52.6691 74.2287L52.7643 74.2593ZM51.4694 78.2935L51.3741 78.2629L51.3322 78.3935H51.4694V78.2935ZM58.8986 82.9H55.9767V83.1H58.8986V82.9ZM56.0719 82.9695L55.2253 80.3216L55.0348 80.3825L55.8814 83.0305L56.0719 82.9695ZM55.13 80.2521H50.8966V80.4521H55.13V80.2521ZM50.8013 80.3219L49.9629 82.9698L50.1536 83.0302L50.9919 80.3822L50.8013 80.3219ZM50.0582 82.9H47.153V83.1H50.0582V82.9ZM47.2469 83.0342L51.5799 71.1309L51.392 71.0625L47.059 82.9658L47.2469 83.0342ZM51.486 71.1967H54.6652V70.9967H51.486V71.1967ZM54.5709 71.1302L58.8043 83.0335L58.9928 82.9665L54.7594 71.0632L54.5709 71.1302ZM54.611 78.263L53.3327 74.262L53.1422 74.3229L54.4205 78.3239L54.611 78.263ZM53.3328 74.2625C53.2414 73.9722 53.1761 73.6225 53.1378 73.2124L52.9386 73.231C52.9778 73.6509 53.0453 74.0151 53.142 74.3225L53.3328 74.2625ZM53.0382 73.1217H52.9718V73.3217H53.0382V73.1217ZM52.8721 73.2138C52.8451 73.5544 52.7775 73.8926 52.6691 74.2286L52.8595 74.29C52.9724 73.9397 53.0432 73.5862 53.0715 73.2296L52.8721 73.2138ZM52.6691 74.2287L51.3741 78.2629L51.5646 78.324L52.8595 74.2898L52.6691 74.2287ZM51.4694 78.3935H54.5157V78.1935H51.4694V78.3935Z" fill="#1C212A" mask="url(#path-35-outside-12_2_2)"/>
</svg>
