<svg width="250" height="250" viewBox="0 0 250 250" fill="none" xmlns="http://www.w3.org/2000/svg">
<rect width="250" height="250" fill="#1C212A"/>
<circle cx="149" cy="148" r="12" fill="#D6E1F6"/>
<circle cx="149" cy="148" r="11.0769" fill="#1C212A"/>
<circle cx="149" cy="148" r="10.1538" fill="#D6E1F6"/>
<mask id="path-4-outside-1_2_66" maskUnits="userSpaceOnUse" x="146" y="141" width="8" height="14" fill="black">
<rect fill="white" x="146" y="141" width="8" height="14"/>
<path d="M153.45 154H146.361V142.097H149.042V151.825H153.45V154Z"/>
</mask>
<path d="M153.45 154H146.361V142.097H149.042V151.825H153.45V154Z" fill="#1C212A"/>
<path d="M153.45 154V154.1H153.55V154H153.45ZM146.361 154H146.261V154.1H146.361V154ZM146.361 142.097V141.997H146.261V142.097H146.361ZM149.042 142.097H149.142V141.997H149.042V142.097ZM149.042 151.825H148.942V151.925H149.042V151.825ZM153.45 151.825H153.55V151.725H153.45V151.825ZM153.45 153.9H146.361V154.1H153.45V153.9ZM146.461 154V142.097H146.261V154H146.461ZM146.361 142.197H149.042V141.997H146.361V142.197ZM148.942 142.097V151.825H149.142V142.097H148.942ZM149.042 151.925H153.45V151.725H149.042V151.925ZM153.35 151.825V154H153.55V151.825H153.35Z" fill="#1C212A" mask="url(#path-4-outside-1_2_66)"/>
<path d="M155.953 159.558C151.057 162.055 147.678 162.065 142.136 159.538C142.024 159.487 141.925 159.653 142.026 159.724L149.439 164.957C149.475 164.982 149.524 164.981 149.559 164.953L156.074 159.741C156.17 159.664 156.062 159.502 155.953 159.558Z" fill="#D6E1F6"/>
<circle cx="50" cy="198" r="12" fill="#D6E1F6"/>
<circle cx="50" cy="198" r="11.0769" fill="#1C212A"/>
<circle cx="50" cy="198" r="10.1538" fill="#D6E1F6"/>
<mask id="path-10-outside-2_2_66" maskUnits="userSpaceOnUse" x="47" y="191" width="8" height="14" fill="black">
<rect fill="white" x="47" y="191" width="8" height="14"/>
<path d="M54.4502 204H47.3613V192.097H50.0425V201.825H54.4502V204Z"/>
</mask>
<path d="M54.4502 204H47.3613V192.097H50.0425V201.825H54.4502V204Z" fill="#1C212A"/>
<path d="M54.4502 204V204.1H54.5502V204H54.4502ZM47.3613 204H47.2613V204.1H47.3613V204ZM47.3613 192.097V191.997H47.2613V192.097H47.3613ZM50.0425 192.097H50.1425V191.997H50.0425V192.097ZM50.0425 201.825H49.9425V201.925H50.0425V201.825ZM54.4502 201.825H54.5502V201.725H54.4502V201.825ZM54.4502 203.9H47.3613V204.1H54.4502V203.9ZM47.4613 204V192.097H47.2613V204H47.4613ZM47.3613 192.197H50.0425V191.997H47.3613V192.197ZM49.9425 192.097V201.825H50.1425V192.097H49.9425ZM50.0425 201.925H54.4502V201.725H50.0425V201.925ZM54.3502 201.825V204H54.5502V201.825H54.3502Z" fill="#1C212A" mask="url(#path-10-outside-2_2_66)"/>
<path d="M61.8081 191.547C64.305 196.443 64.3154 199.822 61.7881 205.364C61.737 205.476 61.9031 205.575 61.9741 205.474L67.2066 198.061C67.2323 198.025 67.2309 197.976 67.203 197.941L61.9909 191.426C61.9143 191.33 61.7525 191.438 61.8081 191.547Z" fill="#D6E1F6"/>
<circle cx="151.5" cy="198" r="12" fill="#D6E1F6"/>
<circle cx="151.5" cy="198" r="11.0769" fill="#1C212A"/>
<circle cx="151.5" cy="198" r="10.1538" fill="#D6E1F6"/>
<mask id="path-16-outside-3_2_66" maskUnits="userSpaceOnUse" x="148.5" y="191" width="8" height="14" fill="black">
<rect fill="white" x="148.5" y="191" width="8" height="14"/>
<path d="M155.95 204H148.861V192.097H151.542V201.825H155.95V204Z"/>
</mask>
<path d="M155.95 204H148.861V192.097H151.542V201.825H155.95V204Z" fill="#1C212A"/>
<path d="M155.95 204V204.1H156.05V204H155.95ZM148.861 204H148.761V204.1H148.861V204ZM148.861 192.097V191.997H148.761V192.097H148.861ZM151.542 192.097H151.642V191.997H151.542V192.097ZM151.542 201.825H151.442V201.925H151.542V201.825ZM155.95 201.825H156.05V201.725H155.95V201.825ZM155.95 203.9H148.861V204.1H155.95V203.9ZM148.961 204V192.097H148.761V204H148.961ZM148.861 192.197H151.542V191.997H148.861V192.197ZM151.442 192.097V201.825H151.642V192.097H151.442ZM151.542 201.925H155.95V201.725H151.542V201.925ZM155.85 201.825V204H156.05V201.825H155.85Z" fill="#1C212A" mask="url(#path-16-outside-3_2_66)"/>
<path d="M139.692 191.547C137.195 196.443 137.185 199.822 139.712 205.364C139.763 205.476 139.597 205.575 139.526 205.474L134.293 198.061C134.268 198.025 134.269 197.976 134.297 197.941L139.509 191.426C139.586 191.33 139.748 191.438 139.692 191.547Z" fill="#D6E1F6"/>
<circle cx="53" cy="153" r="12" fill="#D6E1F6"/>
<circle cx="53" cy="153" r="11.0769" fill="#1C212A"/>
<circle cx="53" cy="153" r="10.1538" fill="#D6E1F6"/>
<mask id="path-22-outside-4_2_66" maskUnits="userSpaceOnUse" x="50" y="146" width="8" height="14" fill="black">
<rect fill="white" x="50" y="146" width="8" height="14"/>
<path d="M57.4502 159H50.3613V147.097H53.0425V156.825H57.4502V159Z"/>
</mask>
<path d="M57.4502 159H50.3613V147.097H53.0425V156.825H57.4502V159Z" fill="#1C212A"/>
<path d="M57.4502 159V159.1H57.5502V159H57.4502ZM50.3613 159H50.2613V159.1H50.3613V159ZM50.3613 147.097V146.997H50.2613V147.097H50.3613ZM53.0425 147.097H53.1425V146.997H53.0425V147.097ZM53.0425 156.825H52.9425V156.925H53.0425V156.825ZM57.4502 156.825H57.5502V156.725H57.4502V156.825ZM57.4502 158.9H50.3613V159.1H57.4502V158.9ZM50.4613 159V147.097H50.2613V159H50.4613ZM50.3613 147.197H53.0425V146.997H50.3613V147.197ZM52.9425 147.097V156.825H53.1425V147.097H52.9425ZM53.0425 156.925H57.4502V156.725H53.0425V156.925ZM57.3502 156.825V159H57.5502V156.825H57.3502Z" fill="#1C212A" mask="url(#path-22-outside-4_2_66)"/>
<path d="M59.9533 141.442C55.0575 138.945 51.6776 138.935 46.1359 141.462C46.0238 141.513 45.9252 141.347 46.0258 141.276L53.4386 136.043C53.475 136.018 53.5239 136.019 53.5587 136.047L60.0739 141.259C60.1696 141.336 60.0624 141.498 59.9533 141.442Z" fill="#D6E1F6"/>
<circle cx="197" cy="148" r="12" fill="#D6E1F6"/>
<circle cx="197" cy="148" r="11.0769" fill="#1C212A"/>
<circle cx="197" cy="148" r="10.1538" fill="#D6E1F6"/>
<mask id="path-28-outside-5_2_66" maskUnits="userSpaceOnUse" x="192.5" y="141" width="11" height="14" fill="black">
<rect fill="white" x="192.5" y="141" width="11" height="14"/>
<path d="M202.847 154H199.768L197.917 150.937C197.778 150.705 197.645 150.497 197.518 150.314C197.391 150.132 197.261 149.977 197.128 149.85C197.001 149.717 196.865 149.617 196.721 149.551C196.583 149.479 196.431 149.443 196.265 149.443H195.542V154H192.861V142.097H197.111C200 142.097 201.444 143.176 201.444 145.334C201.444 145.749 201.381 146.134 201.253 146.488C201.126 146.836 200.946 147.152 200.714 147.434C200.481 147.716 200.199 147.96 199.867 148.165C199.541 148.369 199.175 148.53 198.771 148.646V148.679C198.949 148.735 199.12 148.826 199.286 148.953C199.452 149.075 199.613 149.219 199.768 149.385C199.923 149.551 200.069 149.731 200.208 149.924C200.351 150.112 200.481 150.298 200.598 150.48L202.847 154ZM195.542 144.105V147.417H196.705C197.28 147.417 197.742 147.251 198.091 146.919C198.445 146.582 198.622 146.164 198.622 145.666C198.622 144.626 198 144.105 196.754 144.105H195.542Z"/>
</mask>
<path d="M202.847 154H199.768L197.917 150.937C197.778 150.705 197.645 150.497 197.518 150.314C197.391 150.132 197.261 149.977 197.128 149.85C197.001 149.717 196.865 149.617 196.721 149.551C196.583 149.479 196.431 149.443 196.265 149.443H195.542V154H192.861V142.097H197.111C200 142.097 201.444 143.176 201.444 145.334C201.444 145.749 201.381 146.134 201.253 146.488C201.126 146.836 200.946 147.152 200.714 147.434C200.481 147.716 200.199 147.96 199.867 148.165C199.541 148.369 199.175 148.53 198.771 148.646V148.679C198.949 148.735 199.12 148.826 199.286 148.953C199.452 149.075 199.613 149.219 199.768 149.385C199.923 149.551 200.069 149.731 200.208 149.924C200.351 150.112 200.481 150.298 200.598 150.48L202.847 154ZM195.542 144.105V147.417H196.705C197.28 147.417 197.742 147.251 198.091 146.919C198.445 146.582 198.622 146.164 198.622 145.666C198.622 144.626 198 144.105 196.754 144.105H195.542Z" fill="#1C212A"/>
<path d="M202.847 154V154.1H203.03L202.931 153.946L202.847 154ZM199.768 154L199.682 154.052L199.711 154.1H199.768V154ZM197.917 150.937L197.831 150.988L197.831 150.989L197.917 150.937ZM197.128 149.85L197.056 149.919L197.059 149.922L197.128 149.85ZM196.721 149.551L196.675 149.64L196.679 149.642L196.721 149.551ZM195.542 149.443V149.343H195.442V149.443H195.542ZM195.542 154V154.1H195.642V154H195.542ZM192.861 154H192.761V154.1H192.861V154ZM192.861 142.097V141.997H192.761V142.097H192.861ZM201.253 146.488L201.347 146.522L201.348 146.522L201.253 146.488ZM199.867 148.165L199.815 148.079L199.814 148.08L199.867 148.165ZM198.771 148.646L198.744 148.55L198.671 148.571V148.646H198.771ZM198.771 148.679H198.671V148.753L198.742 148.775L198.771 148.679ZM199.286 148.953L199.225 149.033L199.227 149.034L199.286 148.953ZM200.208 149.924L200.126 149.982L200.128 149.985L200.208 149.924ZM200.598 150.48L200.513 150.534L200.513 150.534L200.598 150.48ZM195.542 144.105V144.005H195.442V144.105H195.542ZM195.542 147.417H195.442V147.517H195.542V147.417ZM198.091 146.919L198.16 146.992L198.16 146.992L198.091 146.919ZM202.847 153.9H199.768V154.1H202.847V153.9ZM199.853 153.948L198.002 150.885L197.831 150.989L199.682 154.052L199.853 153.948ZM198.002 150.886C197.863 150.652 197.729 150.442 197.6 150.257L197.436 150.372C197.562 150.552 197.693 150.757 197.831 150.988L198.002 150.886ZM197.6 150.257C197.47 150.07 197.336 149.91 197.197 149.777L197.059 149.922C197.186 150.044 197.312 150.193 197.436 150.372L197.6 150.257ZM197.2 149.78C197.066 149.64 196.92 149.532 196.763 149.46L196.679 149.642C196.81 149.702 196.936 149.794 197.056 149.919L197.2 149.78ZM196.767 149.462C196.614 149.382 196.446 149.343 196.265 149.343V149.543C196.416 149.543 196.552 149.575 196.675 149.64L196.767 149.462ZM196.265 149.343H195.542V149.543H196.265V149.343ZM195.442 149.443V154H195.642V149.443H195.442ZM195.542 153.9H192.861V154.1H195.542V153.9ZM192.961 154V142.097H192.761V154H192.961ZM192.861 142.197H197.111V141.997H192.861V142.197ZM197.111 142.197C198.546 142.197 199.604 142.465 200.301 142.986C200.993 143.503 201.344 144.279 201.344 145.334H201.544C201.544 144.23 201.173 143.388 200.421 142.826C199.674 142.268 198.565 141.997 197.111 141.997V142.197ZM201.344 145.334C201.344 145.739 201.282 146.112 201.159 146.454L201.348 146.522C201.479 146.156 201.544 145.759 201.544 145.334H201.344ZM201.159 146.453C201.036 146.792 200.862 147.097 200.637 147.371L200.791 147.498C201.031 147.207 201.216 146.881 201.347 146.522L201.159 146.453ZM200.637 147.371C200.412 147.644 200.138 147.88 199.815 148.079L199.92 148.25C200.26 148.04 200.551 147.789 200.791 147.498L200.637 147.371ZM199.814 148.08C199.496 148.279 199.14 148.436 198.744 148.55L198.799 148.742C199.211 148.624 199.585 148.459 199.92 148.249L199.814 148.08ZM198.671 148.646V148.679H198.871V148.646H198.671ZM198.742 148.775C198.906 148.826 199.067 148.911 199.225 149.032L199.347 148.874C199.173 148.74 198.991 148.643 198.801 148.584L198.742 148.775ZM199.227 149.034C199.387 149.151 199.543 149.291 199.694 149.453L199.841 149.317C199.682 149.146 199.517 148.998 199.345 148.872L199.227 149.034ZM199.694 149.453C199.846 149.616 199.99 149.792 200.126 149.982L200.289 149.866C200.148 149.669 199.999 149.486 199.841 149.317L199.694 149.453ZM200.128 149.985C200.27 150.171 200.399 150.354 200.513 150.534L200.682 150.427C200.564 150.242 200.432 150.054 200.287 149.864L200.128 149.985ZM200.513 150.534L202.763 154.054L202.931 153.946L200.682 150.427L200.513 150.534ZM195.442 144.105V147.417H195.642V144.105H195.442ZM195.542 147.517H196.705V147.317H195.542V147.517ZM196.705 147.517C197.3 147.517 197.789 147.345 198.16 146.992L198.022 146.847C197.695 147.158 197.26 147.317 196.705 147.317V147.517ZM198.16 146.992C198.534 146.635 198.722 146.191 198.722 145.666H198.522C198.522 146.137 198.356 146.529 198.022 146.847L198.16 146.992ZM198.722 145.666C198.722 145.125 198.559 144.703 198.219 144.419C197.883 144.138 197.388 144.005 196.754 144.005V144.205C197.365 144.205 197.805 144.333 198.091 144.572C198.373 144.808 198.522 145.166 198.522 145.666H198.722ZM196.754 144.005H195.542V144.205H196.754V144.005Z" fill="#1C212A" mask="url(#path-28-outside-5_2_66)"/>
<path d="M203.953 159.558C199.057 162.055 195.678 162.065 190.136 159.538C190.024 159.487 189.925 159.653 190.026 159.724L197.439 164.957C197.475 164.982 197.524 164.981 197.559 164.953L204.074 159.741C204.17 159.664 204.062 159.502 203.953 159.558Z" fill="#D6E1F6"/>
<circle cx="98" cy="198" r="12" fill="#D6E1F6"/>
<circle cx="98" cy="198" r="11.0769" fill="#1C212A"/>
<circle cx="98" cy="198" r="10.1538" fill="#D6E1F6"/>
<mask id="path-34-outside-6_2_66" maskUnits="userSpaceOnUse" x="93.5" y="191" width="11" height="14" fill="black">
<rect fill="white" x="93.5" y="191" width="11" height="14"/>
<path d="M103.847 204H100.768L98.9165 200.937C98.7782 200.705 98.6453 200.497 98.5181 200.314C98.3908 200.132 98.2607 199.977 98.1279 199.85C98.0007 199.717 97.8651 199.617 97.7212 199.551C97.5828 199.479 97.4307 199.443 97.2646 199.443H96.5425V204H93.8613V192.097H98.1113C101 192.097 102.444 193.176 102.444 195.334C102.444 195.749 102.381 196.134 102.253 196.488C102.126 196.836 101.946 197.152 101.714 197.434C101.481 197.716 101.199 197.96 100.867 198.165C100.541 198.369 100.175 198.53 99.7715 198.646V198.679C99.9486 198.735 100.12 198.826 100.286 198.953C100.452 199.075 100.613 199.219 100.768 199.385C100.923 199.551 101.069 199.731 101.208 199.924C101.351 200.112 101.481 200.298 101.598 200.48L103.847 204ZM96.5425 194.105V197.417H97.7046C98.2801 197.417 98.7422 197.251 99.0908 196.919C99.445 196.582 99.6221 196.164 99.6221 195.666C99.6221 194.626 98.9995 194.105 97.7544 194.105H96.5425Z"/>
</mask>
<path d="M103.847 204H100.768L98.9165 200.937C98.7782 200.705 98.6453 200.497 98.5181 200.314C98.3908 200.132 98.2607 199.977 98.1279 199.85C98.0007 199.717 97.8651 199.617 97.7212 199.551C97.5828 199.479 97.4307 199.443 97.2646 199.443H96.5425V204H93.8613V192.097H98.1113C101 192.097 102.444 193.176 102.444 195.334C102.444 195.749 102.381 196.134 102.253 196.488C102.126 196.836 101.946 197.152 101.714 197.434C101.481 197.716 101.199 197.96 100.867 198.165C100.541 198.369 100.175 198.53 99.7715 198.646V198.679C99.9486 198.735 100.12 198.826 100.286 198.953C100.452 199.075 100.613 199.219 100.768 199.385C100.923 199.551 101.069 199.731 101.208 199.924C101.351 200.112 101.481 200.298 101.598 200.48L103.847 204ZM96.5425 194.105V197.417H97.7046C98.2801 197.417 98.7422 197.251 99.0908 196.919C99.445 196.582 99.6221 196.164 99.6221 195.666C99.6221 194.626 98.9995 194.105 97.7544 194.105H96.5425Z" fill="#1C212A"/>
<path d="M103.847 204V204.1H104.03L103.931 203.946L103.847 204ZM100.768 204L100.682 204.052L100.711 204.1H100.768V204ZM98.9165 200.937L98.8306 200.988L98.8309 200.989L98.9165 200.937ZM98.1279 199.85L98.0557 199.919L98.0587 199.922L98.1279 199.85ZM97.7212 199.551L97.675 199.64L97.6793 199.642L97.7212 199.551ZM96.5425 199.443V199.343H96.4425V199.443H96.5425ZM96.5425 204V204.1H96.6425V204H96.5425ZM93.8613 204H93.7613V204.1H93.8613V204ZM93.8613 192.097V191.997H93.7613V192.097H93.8613ZM102.253 196.488L102.347 196.522L102.348 196.522L102.253 196.488ZM100.867 198.165L100.815 198.079L100.814 198.08L100.867 198.165ZM99.7715 198.646L99.7438 198.55L99.6715 198.571V198.646H99.7715ZM99.7715 198.679H99.6715V198.753L99.7417 198.775L99.7715 198.679ZM100.286 198.953L100.225 199.033L100.227 199.034L100.286 198.953ZM101.208 199.924L101.126 199.982L101.128 199.985L101.208 199.924ZM101.598 200.48L101.513 200.534L101.513 200.534L101.598 200.48ZM96.5425 194.105V194.005H96.4425V194.105H96.5425ZM96.5425 197.417H96.4425V197.517H96.5425V197.417ZM99.0908 196.919L99.1598 196.992L99.1598 196.992L99.0908 196.919ZM103.847 203.9H100.768V204.1H103.847V203.9ZM100.853 203.948L99.0021 200.885L98.8309 200.989L100.682 204.052L100.853 203.948ZM99.0024 200.886C98.8631 200.652 98.729 200.442 98.6001 200.257L98.436 200.372C98.5617 200.552 98.6932 200.757 98.8306 200.988L99.0024 200.886ZM98.6001 200.257C98.4698 200.07 98.3356 199.91 98.1971 199.777L98.0587 199.922C98.1859 200.044 98.3118 200.193 98.436 200.372L98.6001 200.257ZM98.2001 199.78C98.0656 199.64 97.92 199.532 97.7631 199.46L97.6793 199.642C97.8101 199.702 97.9357 199.794 98.0557 199.919L98.2001 199.78ZM97.7673 199.462C97.6138 199.382 97.4457 199.343 97.2646 199.343V199.543C97.4157 199.543 97.5519 199.575 97.6751 199.64L97.7673 199.462ZM97.2646 199.343H96.5425V199.543H97.2646V199.343ZM96.4425 199.443V204H96.6425V199.443H96.4425ZM96.5425 203.9H93.8613V204.1H96.5425V203.9ZM93.9613 204V192.097H93.7613V204H93.9613ZM93.8613 192.197H98.1113V191.997H93.8613V192.197ZM98.1113 192.197C99.5461 192.197 100.604 192.465 101.301 192.986C101.993 193.503 102.344 194.279 102.344 195.334H102.544C102.544 194.23 102.173 193.388 101.421 192.826C100.674 192.268 99.5652 191.997 98.1113 191.997V192.197ZM102.344 195.334C102.344 195.739 102.282 196.112 102.159 196.454L102.348 196.522C102.479 196.156 102.544 195.759 102.544 195.334H102.344ZM102.159 196.453C102.036 196.792 101.862 197.097 101.637 197.371L101.791 197.498C102.031 197.207 102.216 196.881 102.347 196.522L102.159 196.453ZM101.637 197.371C101.412 197.644 101.138 197.88 100.815 198.079L100.92 198.25C101.26 198.04 101.551 197.789 101.791 197.498L101.637 197.371ZM100.814 198.08C100.496 198.279 100.14 198.436 99.7438 198.55L99.7991 198.742C100.211 198.624 100.585 198.459 100.92 198.249L100.814 198.08ZM99.6715 198.646V198.679H99.8715V198.646H99.6715ZM99.7417 198.775C99.9062 198.826 100.067 198.911 100.225 199.032L100.347 198.874C100.173 198.74 99.9909 198.643 99.8013 198.584L99.7417 198.775ZM100.227 199.034C100.387 199.151 100.543 199.291 100.694 199.453L100.841 199.317C100.682 199.146 100.517 198.998 100.345 198.872L100.227 199.034ZM100.694 199.453C100.846 199.616 100.99 199.792 101.126 199.982L101.289 199.866C101.148 199.669 100.999 199.486 100.841 199.317L100.694 199.453ZM101.128 199.985C101.27 200.171 101.399 200.354 101.513 200.534L101.682 200.427C101.564 200.242 101.432 200.054 101.287 199.864L101.128 199.985ZM101.513 200.534L103.763 204.054L103.931 203.946L101.682 200.427L101.513 200.534ZM96.4425 194.105V197.417H96.6425V194.105H96.4425ZM96.5425 197.517H97.7046V197.317H96.5425V197.517ZM97.7046 197.517C98.3005 197.517 98.789 197.345 99.1598 196.992L99.0219 196.847C98.6954 197.158 98.2598 197.317 97.7046 197.317V197.517ZM99.1598 196.992C99.5342 196.635 99.7221 196.191 99.7221 195.666H99.5221C99.5221 196.137 99.3558 196.529 99.0218 196.847L99.1598 196.992ZM99.7221 195.666C99.7221 195.125 99.5594 194.703 99.2193 194.419C98.8826 194.138 98.3884 194.005 97.7544 194.005V194.205C98.3655 194.205 98.8052 194.333 99.091 194.572C99.3735 194.808 99.5221 195.166 99.5221 195.666H99.7221ZM97.7544 194.005H96.5425V194.205H97.7544V194.005Z" fill="#1C212A" mask="url(#path-34-outside-6_2_66)"/>
<path d="M109.808 191.547C112.305 196.443 112.315 199.822 109.788 205.364C109.737 205.476 109.903 205.575 109.974 205.474L115.207 198.061C115.232 198.025 115.231 197.976 115.203 197.941L109.991 191.426C109.914 191.33 109.752 191.438 109.808 191.547Z" fill="#D6E1F6"/>
<circle cx="199.5" cy="198" r="12" fill="#D6E1F6"/>
<circle cx="199.5" cy="198" r="11.0769" fill="#1C212A"/>
<circle cx="199.5" cy="198" r="10.1538" fill="#D6E1F6"/>
<mask id="path-40-outside-7_2_66" maskUnits="userSpaceOnUse" x="195" y="191" width="11" height="14" fill="black">
<rect fill="white" x="195" y="191" width="11" height="14"/>
<path d="M205.347 204H202.268L200.417 200.937C200.278 200.705 200.145 200.497 200.018 200.314C199.891 200.132 199.761 199.977 199.628 199.85C199.501 199.717 199.365 199.617 199.221 199.551C199.083 199.479 198.931 199.443 198.765 199.443H198.042V204H195.361V192.097H199.611C202.5 192.097 203.944 193.176 203.944 195.334C203.944 195.749 203.881 196.134 203.753 196.488C203.626 196.836 203.446 197.152 203.214 197.434C202.981 197.716 202.699 197.96 202.367 198.165C202.041 198.369 201.675 198.53 201.271 198.646V198.679C201.449 198.735 201.62 198.826 201.786 198.953C201.952 199.075 202.113 199.219 202.268 199.385C202.423 199.551 202.569 199.731 202.708 199.924C202.851 200.112 202.981 200.298 203.098 200.48L205.347 204ZM198.042 194.105V197.417H199.205C199.78 197.417 200.242 197.251 200.591 196.919C200.945 196.582 201.122 196.164 201.122 195.666C201.122 194.626 200.5 194.105 199.254 194.105H198.042Z"/>
</mask>
<path d="M205.347 204H202.268L200.417 200.937C200.278 200.705 200.145 200.497 200.018 200.314C199.891 200.132 199.761 199.977 199.628 199.85C199.501 199.717 199.365 199.617 199.221 199.551C199.083 199.479 198.931 199.443 198.765 199.443H198.042V204H195.361V192.097H199.611C202.5 192.097 203.944 193.176 203.944 195.334C203.944 195.749 203.881 196.134 203.753 196.488C203.626 196.836 203.446 197.152 203.214 197.434C202.981 197.716 202.699 197.96 202.367 198.165C202.041 198.369 201.675 198.53 201.271 198.646V198.679C201.449 198.735 201.62 198.826 201.786 198.953C201.952 199.075 202.113 199.219 202.268 199.385C202.423 199.551 202.569 199.731 202.708 199.924C202.851 200.112 202.981 200.298 203.098 200.48L205.347 204ZM198.042 194.105V197.417H199.205C199.78 197.417 200.242 197.251 200.591 196.919C200.945 196.582 201.122 196.164 201.122 195.666C201.122 194.626 200.5 194.105 199.254 194.105H198.042Z" fill="#1C212A"/>
<path d="M205.347 204V204.1H205.53L205.431 203.946L205.347 204ZM202.268 204L202.182 204.052L202.211 204.1H202.268V204ZM200.417 200.937L200.331 200.988L200.331 200.989L200.417 200.937ZM199.628 199.85L199.556 199.919L199.559 199.922L199.628 199.85ZM199.221 199.551L199.175 199.64L199.179 199.642L199.221 199.551ZM198.042 199.443V199.343H197.942V199.443H198.042ZM198.042 204V204.1H198.142V204H198.042ZM195.361 204H195.261V204.1H195.361V204ZM195.361 192.097V191.997H195.261V192.097H195.361ZM203.753 196.488L203.847 196.522L203.848 196.522L203.753 196.488ZM202.367 198.165L202.315 198.079L202.314 198.08L202.367 198.165ZM201.271 198.646L201.244 198.55L201.171 198.571V198.646H201.271ZM201.271 198.679H201.171V198.753L201.242 198.775L201.271 198.679ZM201.786 198.953L201.725 199.033L201.727 199.034L201.786 198.953ZM202.708 199.924L202.626 199.982L202.628 199.985L202.708 199.924ZM203.098 200.48L203.013 200.534L203.013 200.534L203.098 200.48ZM198.042 194.105V194.005H197.942V194.105H198.042ZM198.042 197.417H197.942V197.517H198.042V197.417ZM200.591 196.919L200.66 196.992L200.66 196.992L200.591 196.919ZM205.347 203.9H202.268V204.1H205.347V203.9ZM202.353 203.948L200.502 200.885L200.331 200.989L202.182 204.052L202.353 203.948ZM200.502 200.886C200.363 200.652 200.229 200.442 200.1 200.257L199.936 200.372C200.062 200.552 200.193 200.757 200.331 200.988L200.502 200.886ZM200.1 200.257C199.97 200.07 199.836 199.91 199.697 199.777L199.559 199.922C199.686 200.044 199.812 200.193 199.936 200.372L200.1 200.257ZM199.7 199.78C199.566 199.64 199.42 199.532 199.263 199.46L199.179 199.642C199.31 199.702 199.436 199.794 199.556 199.919L199.7 199.78ZM199.267 199.462C199.114 199.382 198.946 199.343 198.765 199.343V199.543C198.916 199.543 199.052 199.575 199.175 199.64L199.267 199.462ZM198.765 199.343H198.042V199.543H198.765V199.343ZM197.942 199.443V204H198.142V199.443H197.942ZM198.042 203.9H195.361V204.1H198.042V203.9ZM195.461 204V192.097H195.261V204H195.461ZM195.361 192.197H199.611V191.997H195.361V192.197ZM199.611 192.197C201.046 192.197 202.104 192.465 202.801 192.986C203.493 193.503 203.844 194.279 203.844 195.334H204.044C204.044 194.23 203.673 193.388 202.921 192.826C202.174 192.268 201.065 191.997 199.611 191.997V192.197ZM203.844 195.334C203.844 195.739 203.782 196.112 203.659 196.454L203.848 196.522C203.979 196.156 204.044 195.759 204.044 195.334H203.844ZM203.659 196.453C203.536 196.792 203.362 197.097 203.137 197.371L203.291 197.498C203.531 197.207 203.716 196.881 203.847 196.522L203.659 196.453ZM203.137 197.371C202.912 197.644 202.638 197.88 202.315 198.079L202.42 198.25C202.76 198.04 203.051 197.789 203.291 197.498L203.137 197.371ZM202.314 198.08C201.996 198.279 201.64 198.436 201.244 198.55L201.299 198.742C201.711 198.624 202.085 198.459 202.42 198.249L202.314 198.08ZM201.171 198.646V198.679H201.371V198.646H201.171ZM201.242 198.775C201.406 198.826 201.567 198.911 201.725 199.032L201.847 198.874C201.673 198.74 201.491 198.643 201.301 198.584L201.242 198.775ZM201.727 199.034C201.887 199.151 202.043 199.291 202.194 199.453L202.341 199.317C202.182 199.146 202.017 198.998 201.845 198.872L201.727 199.034ZM202.194 199.453C202.346 199.616 202.49 199.792 202.626 199.982L202.789 199.866C202.648 199.669 202.499 199.486 202.341 199.317L202.194 199.453ZM202.628 199.985C202.77 200.171 202.899 200.354 203.013 200.534L203.182 200.427C203.064 200.242 202.932 200.054 202.787 199.864L202.628 199.985ZM203.013 200.534L205.263 204.054L205.431 203.946L203.182 200.427L203.013 200.534ZM197.942 194.105V197.417H198.142V194.105H197.942ZM198.042 197.517H199.205V197.317H198.042V197.517ZM199.205 197.517C199.8 197.517 200.289 197.345 200.66 196.992L200.522 196.847C200.195 197.158 199.76 197.317 199.205 197.317V197.517ZM200.66 196.992C201.034 196.635 201.222 196.191 201.222 195.666H201.022C201.022 196.137 200.856 196.529 200.522 196.847L200.66 196.992ZM201.222 195.666C201.222 195.125 201.059 194.703 200.719 194.419C200.383 194.138 199.888 194.005 199.254 194.005V194.205C199.865 194.205 200.305 194.333 200.591 194.572C200.873 194.808 201.022 195.166 201.022 195.666H201.222ZM199.254 194.005H198.042V194.205H199.254V194.005Z" fill="#1C212A" mask="url(#path-40-outside-7_2_66)"/>
<path d="M187.692 191.547C185.195 196.443 185.185 199.822 187.712 205.364C187.763 205.476 187.597 205.575 187.526 205.474L182.293 198.061C182.268 198.025 182.269 197.976 182.297 197.941L187.509 191.426C187.586 191.33 187.748 191.438 187.692 191.547Z" fill="#D6E1F6"/>
<circle cx="101" cy="153" r="12" fill="#D6E1F6"/>
<circle cx="101" cy="153" r="11.0769" fill="#1C212A"/>
<circle cx="101" cy="153" r="10.1538" fill="#D6E1F6"/>
<mask id="path-46-outside-8_2_66" maskUnits="userSpaceOnUse" x="96.5" y="146" width="11" height="14" fill="black">
<rect fill="white" x="96.5" y="146" width="11" height="14"/>
<path d="M106.847 159H103.768L101.917 155.937C101.778 155.705 101.645 155.497 101.518 155.314C101.391 155.132 101.261 154.977 101.128 154.85C101.001 154.717 100.865 154.617 100.721 154.551C100.583 154.479 100.431 154.443 100.265 154.443H99.5425V159H96.8613V147.097H101.111C104 147.097 105.444 148.176 105.444 150.334C105.444 150.749 105.381 151.134 105.253 151.488C105.126 151.836 104.946 152.152 104.714 152.434C104.481 152.716 104.199 152.96 103.867 153.165C103.541 153.369 103.175 153.53 102.771 153.646V153.679C102.949 153.735 103.12 153.826 103.286 153.953C103.452 154.075 103.613 154.219 103.768 154.385C103.923 154.551 104.069 154.731 104.208 154.924C104.351 155.112 104.481 155.298 104.598 155.48L106.847 159ZM99.5425 149.105V152.417H100.705C101.28 152.417 101.742 152.251 102.091 151.919C102.445 151.582 102.622 151.164 102.622 150.666C102.622 149.626 102 149.105 100.754 149.105H99.5425Z"/>
</mask>
<path d="M106.847 159H103.768L101.917 155.937C101.778 155.705 101.645 155.497 101.518 155.314C101.391 155.132 101.261 154.977 101.128 154.85C101.001 154.717 100.865 154.617 100.721 154.551C100.583 154.479 100.431 154.443 100.265 154.443H99.5425V159H96.8613V147.097H101.111C104 147.097 105.444 148.176 105.444 150.334C105.444 150.749 105.381 151.134 105.253 151.488C105.126 151.836 104.946 152.152 104.714 152.434C104.481 152.716 104.199 152.96 103.867 153.165C103.541 153.369 103.175 153.53 102.771 153.646V153.679C102.949 153.735 103.12 153.826 103.286 153.953C103.452 154.075 103.613 154.219 103.768 154.385C103.923 154.551 104.069 154.731 104.208 154.924C104.351 155.112 104.481 155.298 104.598 155.48L106.847 159ZM99.5425 149.105V152.417H100.705C101.28 152.417 101.742 152.251 102.091 151.919C102.445 151.582 102.622 151.164 102.622 150.666C102.622 149.626 102 149.105 100.754 149.105H99.5425Z" fill="#1C212A"/>
<path d="M106.847 159V159.1H107.03L106.931 158.946L106.847 159ZM103.768 159L103.682 159.052L103.711 159.1H103.768V159ZM101.917 155.937L101.831 155.988L101.831 155.989L101.917 155.937ZM101.128 154.85L101.056 154.919L101.059 154.922L101.128 154.85ZM100.721 154.551L100.675 154.64L100.679 154.642L100.721 154.551ZM99.5425 154.443V154.343H99.4425V154.443H99.5425ZM99.5425 159V159.1H99.6425V159H99.5425ZM96.8613 159H96.7613V159.1H96.8613V159ZM96.8613 147.097V146.997H96.7613V147.097H96.8613ZM105.253 151.488L105.347 151.522L105.348 151.522L105.253 151.488ZM103.867 153.165L103.815 153.079L103.814 153.08L103.867 153.165ZM102.771 153.646L102.744 153.55L102.671 153.571V153.646H102.771ZM102.771 153.679H102.671V153.753L102.742 153.775L102.771 153.679ZM103.286 153.953L103.225 154.033L103.227 154.034L103.286 153.953ZM104.208 154.924L104.126 154.982L104.128 154.985L104.208 154.924ZM104.598 155.48L104.513 155.534L104.513 155.534L104.598 155.48ZM99.5425 149.105V149.005H99.4425V149.105H99.5425ZM99.5425 152.417H99.4425V152.517H99.5425V152.417ZM102.091 151.919L102.16 151.992L102.16 151.992L102.091 151.919ZM106.847 158.9H103.768V159.1H106.847V158.9ZM103.853 158.948L102.002 155.885L101.831 155.989L103.682 159.052L103.853 158.948ZM102.002 155.886C101.863 155.652 101.729 155.442 101.6 155.257L101.436 155.372C101.562 155.552 101.693 155.757 101.831 155.988L102.002 155.886ZM101.6 155.257C101.47 155.07 101.336 154.91 101.197 154.777L101.059 154.922C101.186 155.044 101.312 155.193 101.436 155.372L101.6 155.257ZM101.2 154.78C101.066 154.64 100.92 154.532 100.763 154.46L100.679 154.642C100.81 154.702 100.936 154.794 101.056 154.919L101.2 154.78ZM100.767 154.462C100.614 154.382 100.446 154.343 100.265 154.343V154.543C100.416 154.543 100.552 154.575 100.675 154.64L100.767 154.462ZM100.265 154.343H99.5425V154.543H100.265V154.343ZM99.4425 154.443V159H99.6425V154.443H99.4425ZM99.5425 158.9H96.8613V159.1H99.5425V158.9ZM96.9613 159V147.097H96.7613V159H96.9613ZM96.8613 147.197H101.111V146.997H96.8613V147.197ZM101.111 147.197C102.546 147.197 103.604 147.465 104.301 147.986C104.993 148.503 105.344 149.279 105.344 150.334H105.544C105.544 149.23 105.173 148.388 104.421 147.826C103.674 147.268 102.565 146.997 101.111 146.997V147.197ZM105.344 150.334C105.344 150.739 105.282 151.112 105.159 151.454L105.348 151.522C105.479 151.156 105.544 150.759 105.544 150.334H105.344ZM105.159 151.453C105.036 151.792 104.862 152.097 104.637 152.371L104.791 152.498C105.031 152.207 105.216 151.881 105.347 151.522L105.159 151.453ZM104.637 152.371C104.412 152.644 104.138 152.88 103.815 153.079L103.92 153.25C104.26 153.04 104.551 152.789 104.791 152.498L104.637 152.371ZM103.814 153.08C103.496 153.279 103.14 153.436 102.744 153.55L102.799 153.742C103.211 153.624 103.585 153.459 103.92 153.249L103.814 153.08ZM102.671 153.646V153.679H102.871V153.646H102.671ZM102.742 153.775C102.906 153.826 103.067 153.911 103.225 154.032L103.347 153.874C103.173 153.74 102.991 153.643 102.801 153.584L102.742 153.775ZM103.227 154.034C103.387 154.151 103.543 154.291 103.694 154.453L103.841 154.317C103.682 154.146 103.517 153.998 103.345 153.872L103.227 154.034ZM103.694 154.453C103.846 154.616 103.99 154.792 104.126 154.982L104.289 154.866C104.148 154.669 103.999 154.486 103.841 154.317L103.694 154.453ZM104.128 154.985C104.27 155.171 104.399 155.354 104.513 155.534L104.682 155.427C104.564 155.242 104.432 155.054 104.287 154.864L104.128 154.985ZM104.513 155.534L106.763 159.054L106.931 158.946L104.682 155.427L104.513 155.534ZM99.4425 149.105V152.417H99.6425V149.105H99.4425ZM99.5425 152.517H100.705V152.317H99.5425V152.517ZM100.705 152.517C101.3 152.517 101.789 152.345 102.16 151.992L102.022 151.847C101.695 152.158 101.26 152.317 100.705 152.317V152.517ZM102.16 151.992C102.534 151.635 102.722 151.191 102.722 150.666H102.522C102.522 151.137 102.356 151.529 102.022 151.847L102.16 151.992ZM102.722 150.666C102.722 150.125 102.559 149.703 102.219 149.419C101.883 149.138 101.388 149.005 100.754 149.005V149.205C101.365 149.205 101.805 149.333 102.091 149.572C102.373 149.808 102.522 150.166 102.522 150.666H102.722ZM100.754 149.005H99.5425V149.205H100.754V149.005Z" fill="#1C212A" mask="url(#path-46-outside-8_2_66)"/>
<path d="M107.953 141.442C103.057 138.945 99.6776 138.935 94.1359 141.462C94.0238 141.513 93.9252 141.347 94.0258 141.276L101.439 136.043C101.475 136.018 101.524 136.019 101.559 136.047L108.074 141.259C108.17 141.336 108.062 141.498 107.953 141.442Z" fill="#D6E1F6"/>
<circle cx="149" cy="102" r="12" fill="#D6E1F6"/>
<circle cx="149" cy="102" r="11.0769" fill="#1C212A"/>
<circle cx="149" cy="102" r="10.1538" fill="#D6E1F6"/>
<mask id="path-52-outside-9_2_66" maskUnits="userSpaceOnUse" x="144.5" y="95" width="11" height="14" fill="black">
<rect fill="white" x="144.5" y="95" width="11" height="14"/>
<path d="M154.847 108H151.768L149.917 104.937C149.778 104.705 149.645 104.497 149.518 104.314C149.391 104.132 149.261 103.977 149.128 103.85C149.001 103.717 148.865 103.617 148.721 103.551C148.583 103.479 148.431 103.443 148.265 103.443H147.542V108H144.861V96.0967H149.111C152 96.0967 153.444 97.1758 153.444 99.334C153.444 99.749 153.381 100.134 153.253 100.488C153.126 100.836 152.946 101.152 152.714 101.434C152.481 101.716 152.199 101.96 151.867 102.165C151.541 102.369 151.175 102.53 150.771 102.646V102.679C150.949 102.735 151.12 102.826 151.286 102.953C151.452 103.075 151.613 103.219 151.768 103.385C151.923 103.551 152.069 103.731 152.208 103.924C152.351 104.112 152.481 104.298 152.598 104.48L154.847 108ZM147.542 98.1055V101.417H148.705C149.28 101.417 149.742 101.251 150.091 100.919C150.445 100.582 150.622 100.164 150.622 99.666C150.622 98.6257 150 98.1055 148.754 98.1055H147.542Z"/>
</mask>
<path d="M154.847 108H151.768L149.917 104.937C149.778 104.705 149.645 104.497 149.518 104.314C149.391 104.132 149.261 103.977 149.128 103.85C149.001 103.717 148.865 103.617 148.721 103.551C148.583 103.479 148.431 103.443 148.265 103.443H147.542V108H144.861V96.0967H149.111C152 96.0967 153.444 97.1758 153.444 99.334C153.444 99.749 153.381 100.134 153.253 100.488C153.126 100.836 152.946 101.152 152.714 101.434C152.481 101.716 152.199 101.96 151.867 102.165C151.541 102.369 151.175 102.53 150.771 102.646V102.679C150.949 102.735 151.12 102.826 151.286 102.953C151.452 103.075 151.613 103.219 151.768 103.385C151.923 103.551 152.069 103.731 152.208 103.924C152.351 104.112 152.481 104.298 152.598 104.48L154.847 108ZM147.542 98.1055V101.417H148.705C149.28 101.417 149.742 101.251 150.091 100.919C150.445 100.582 150.622 100.164 150.622 99.666C150.622 98.6257 150 98.1055 148.754 98.1055H147.542Z" fill="#1C212A"/>
<path d="M154.847 108V108.1H155.03L154.931 107.946L154.847 108ZM151.768 108L151.682 108.052L151.711 108.1H151.768V108ZM149.917 104.937L149.831 104.988L149.831 104.989L149.917 104.937ZM149.128 103.85L149.056 103.919L149.059 103.922L149.128 103.85ZM148.721 103.551L148.675 103.64L148.679 103.642L148.721 103.551ZM147.542 103.443V103.343H147.442V103.443H147.542ZM147.542 108V108.1H147.642V108H147.542ZM144.861 108H144.761V108.1H144.861V108ZM144.861 96.0967V95.9967H144.761V96.0967H144.861ZM153.253 100.488L153.347 100.522L153.348 100.522L153.253 100.488ZM151.867 102.165L151.815 102.079L151.814 102.08L151.867 102.165ZM150.771 102.646L150.744 102.55L150.671 102.571V102.646H150.771ZM150.771 102.679H150.671V102.753L150.742 102.775L150.771 102.679ZM151.286 102.953L151.225 103.033L151.227 103.034L151.286 102.953ZM152.208 103.924L152.126 103.982L152.128 103.985L152.208 103.924ZM152.598 104.48L152.513 104.534L152.513 104.534L152.598 104.48ZM147.542 98.1055V98.0055H147.442V98.1055H147.542ZM147.542 101.417H147.442V101.517H147.542V101.417ZM150.091 100.919L150.16 100.992L150.16 100.992L150.091 100.919ZM154.847 107.9H151.768V108.1H154.847V107.9ZM151.853 107.948L150.002 104.885L149.831 104.989L151.682 108.052L151.853 107.948ZM150.002 104.886C149.863 104.652 149.729 104.442 149.6 104.257L149.436 104.372C149.562 104.552 149.693 104.757 149.831 104.988L150.002 104.886ZM149.6 104.257C149.47 104.07 149.336 103.91 149.197 103.777L149.059 103.922C149.186 104.044 149.312 104.193 149.436 104.372L149.6 104.257ZM149.2 103.78C149.066 103.64 148.92 103.532 148.763 103.46L148.679 103.642C148.81 103.702 148.936 103.794 149.056 103.919L149.2 103.78ZM148.767 103.462C148.614 103.382 148.446 103.343 148.265 103.343V103.543C148.416 103.543 148.552 103.575 148.675 103.64L148.767 103.462ZM148.265 103.343H147.542V103.543H148.265V103.343ZM147.442 103.443V108H147.642V103.443H147.442ZM147.542 107.9H144.861V108.1H147.542V107.9ZM144.961 108V96.0967H144.761V108H144.961ZM144.861 96.1967H149.111V95.9967H144.861V96.1967ZM149.111 96.1967C150.546 96.1967 151.604 96.4652 152.301 96.9861C152.993 97.503 153.344 98.2794 153.344 99.334H153.544C153.544 98.2303 153.173 97.3882 152.421 96.8259C151.674 96.2677 150.565 95.9967 149.111 95.9967V96.1967ZM153.344 99.334C153.344 99.7387 153.282 100.112 153.159 100.454L153.348 100.522C153.479 100.156 153.544 99.7594 153.544 99.334H153.344ZM153.159 100.453C153.036 100.792 152.862 101.097 152.637 101.371L152.791 101.498C153.031 101.207 153.216 100.881 153.347 100.522L153.159 100.453ZM152.637 101.371C152.412 101.644 152.138 101.88 151.815 102.079L151.92 102.25C152.26 102.04 152.551 101.789 152.791 101.498L152.637 101.371ZM151.814 102.08C151.496 102.279 151.14 102.436 150.744 102.55L150.799 102.742C151.211 102.624 151.585 102.459 151.92 102.249L151.814 102.08ZM150.671 102.646V102.679H150.871V102.646H150.671ZM150.742 102.775C150.906 102.826 151.067 102.911 151.225 103.032L151.347 102.874C151.173 102.74 150.991 102.643 150.801 102.584L150.742 102.775ZM151.227 103.034C151.387 103.151 151.543 103.291 151.694 103.453L151.841 103.317C151.682 103.146 151.517 102.998 151.345 102.872L151.227 103.034ZM151.694 103.453C151.846 103.616 151.99 103.792 152.126 103.982L152.289 103.866C152.148 103.669 151.999 103.486 151.841 103.317L151.694 103.453ZM152.128 103.985C152.27 104.171 152.399 104.354 152.513 104.534L152.682 104.427C152.564 104.242 152.432 104.054 152.287 103.864L152.128 103.985ZM152.513 104.534L154.763 108.054L154.931 107.946L152.682 104.427L152.513 104.534ZM147.442 98.1055V101.417H147.642V98.1055H147.442ZM147.542 101.517H148.705V101.317H147.542V101.517ZM148.705 101.517C149.3 101.517 149.789 101.345 150.16 100.992L150.022 100.847C149.695 101.158 149.26 101.317 148.705 101.317V101.517ZM150.16 100.992C150.534 100.635 150.722 100.191 150.722 99.666H150.522C150.522 100.137 150.356 100.529 150.022 100.847L150.16 100.992ZM150.722 99.666C150.722 99.1252 150.559 98.7031 150.219 98.4189C149.883 98.1375 149.388 98.0055 148.754 98.0055V98.2055C149.365 98.2055 149.805 98.3335 150.091 98.5723C150.373 98.8083 150.522 99.1664 150.522 99.666H150.722ZM148.754 98.0055H147.542V98.2055H148.754V98.0055Z" fill="#1C212A" mask="url(#path-52-outside-9_2_66)"/>
<circle cx="101" cy="102" r="12" fill="#D6E1F6"/>
<circle cx="101" cy="102" r="11.0769" fill="#1C212A"/>
<circle cx="101" cy="102" r="10.1538" fill="#D6E1F6"/>
<mask id="path-57-outside-10_2_66" maskUnits="userSpaceOnUse" x="98" y="95" width="8" height="14" fill="black">
<rect fill="white" x="98" y="95" width="8" height="14"/>
<path d="M105.45 108H98.3613V96.0967H101.042V105.825H105.45V108Z"/>
</mask>
<path d="M105.45 108H98.3613V96.0967H101.042V105.825H105.45V108Z" fill="#1C212A"/>
<path d="M105.45 108V108.1H105.55V108H105.45ZM98.3613 108H98.2613V108.1H98.3613V108ZM98.3613 96.0967V95.9967H98.2613V96.0967H98.3613ZM101.042 96.0967H101.142V95.9967H101.042V96.0967ZM101.042 105.825H100.942V105.925H101.042V105.825ZM105.45 105.825H105.55V105.725H105.45V105.825ZM105.45 107.9H98.3613V108.1H105.45V107.9ZM98.4613 108V96.0967H98.2613V108H98.4613ZM98.3613 96.1967H101.042V95.9967H98.3613V96.1967ZM100.942 96.0967V105.825H101.142V96.0967H100.942ZM101.042 105.925H105.45V105.725H101.042V105.925ZM105.35 105.825V108H105.55V105.825H105.35Z" fill="#1C212A" mask="url(#path-57-outside-10_2_66)"/>
<circle cx="149" cy="53" r="12" fill="#D6E1F6"/>
<circle cx="149" cy="53" r="11.0769" fill="#1C212A"/>
<circle cx="149" cy="53" r="10.1538" fill="#D6E1F6"/>
<mask id="path-62-outside-11_2_66" maskUnits="userSpaceOnUse" x="146" y="46" width="8" height="14" fill="black">
<rect fill="white" x="146" y="46" width="8" height="14"/>
<path d="M153.45 59H146.361V47.0967H149.042V56.8252H153.45V59Z"/>
</mask>
<path d="M153.45 59H146.361V47.0967H149.042V56.8252H153.45V59Z" fill="#1C212A"/>
<path d="M153.45 59V59.1H153.55V59H153.45ZM146.361 59H146.261V59.1H146.361V59ZM146.361 47.0967V46.9967H146.261V47.0967H146.361ZM149.042 47.0967H149.142V46.9967H149.042V47.0967ZM149.042 56.8252H148.942V56.9252H149.042V56.8252ZM153.45 56.8252H153.55V56.7252H153.45V56.8252ZM153.45 58.9H146.361V59.1H153.45V58.9ZM146.461 59V47.0967H146.261V59H146.461ZM146.361 47.1967H149.042V46.9967H146.361V47.1967ZM148.942 47.0967V56.8252H149.142V47.0967H148.942ZM149.042 56.9252H153.45V56.7252H149.042V56.9252ZM153.35 56.8252V59H153.55V56.8252H153.35Z" fill="#1C212A" mask="url(#path-62-outside-11_2_66)"/>
<path d="M155.953 41.4419C151.057 38.945 147.678 38.9346 142.136 41.4619C142.024 41.513 141.925 41.3469 142.026 41.2759L149.439 36.0434C149.475 36.0177 149.524 36.0191 149.559 36.047L156.074 41.2591C156.17 41.3357 156.062 41.4975 155.953 41.4419Z" fill="#D6E1F6"/>
<path d="M155.953 64.5581C151.057 67.055 147.678 67.0654 142.136 64.5381C142.024 64.487 141.925 64.6531 142.026 64.7241L149.439 69.9566C149.475 69.9823 149.524 69.9809 149.559 69.953L156.074 64.7409C156.17 64.6643 156.062 64.5025 155.953 64.5581Z" fill="#D6E1F6"/>
<path d="M160.558 46.5467C163.055 51.4425 163.065 54.8224 160.538 60.3641C160.487 60.4762 160.653 60.5748 160.724 60.4742L165.957 53.0614C165.982 53.025 165.981 52.9761 165.953 52.9413L160.741 46.4261C160.664 46.3304 160.502 46.4376 160.558 46.5467Z" fill="#D6E1F6"/>
<path d="M137.442 46.5467C134.945 51.4425 134.935 54.8224 137.462 60.3641C137.513 60.4762 137.347 60.5748 137.276 60.4742L132.043 53.0614C132.018 53.025 132.019 52.9761 132.047 52.9413L137.259 46.4261C137.336 46.3304 137.498 46.4376 137.442 46.5467Z" fill="#D6E1F6"/>
<circle cx="101" cy="53" r="12" fill="#D6E1F6"/>
<circle cx="101" cy="53" r="11.0769" fill="#1C212A"/>
<circle cx="101" cy="53" r="10.1538" fill="#D6E1F6"/>
<mask id="path-71-outside-12_2_66" maskUnits="userSpaceOnUse" x="96.5" y="46" width="11" height="14" fill="black">
<rect fill="white" x="96.5" y="46" width="11" height="14"/>
<path d="M106.847 59H103.768L101.917 55.937C101.778 55.7046 101.645 55.4971 101.518 55.3145C101.391 55.1318 101.261 54.9769 101.128 54.8496C101.001 54.7168 100.865 54.6172 100.721 54.5508C100.583 54.4788 100.431 54.4429 100.265 54.4429H99.5425V59H96.8613V47.0967H101.111C104 47.0967 105.444 48.1758 105.444 50.334C105.444 50.749 105.381 51.1336 105.253 51.4878C105.126 51.8364 104.946 52.1519 104.714 52.4341C104.481 52.7163 104.199 52.9598 103.867 53.1646C103.541 53.3693 103.175 53.5298 102.771 53.646V53.6792C102.949 53.7345 103.12 53.8258 103.286 53.9531C103.452 54.0749 103.613 54.2188 103.768 54.3848C103.923 54.5508 104.069 54.7306 104.208 54.9243C104.351 55.1125 104.481 55.2979 104.598 55.4805L106.847 59ZM99.5425 49.1055V52.4175H100.705C101.28 52.4175 101.742 52.2515 102.091 51.9194C102.445 51.5819 102.622 51.1641 102.622 50.666C102.622 49.6257 102 49.1055 100.754 49.1055H99.5425Z"/>
</mask>
<path d="M106.847 59H103.768L101.917 55.937C101.778 55.7046 101.645 55.4971 101.518 55.3145C101.391 55.1318 101.261 54.9769 101.128 54.8496C101.001 54.7168 100.865 54.6172 100.721 54.5508C100.583 54.4788 100.431 54.4429 100.265 54.4429H99.5425V59H96.8613V47.0967H101.111C104 47.0967 105.444 48.1758 105.444 50.334C105.444 50.749 105.381 51.1336 105.253 51.4878C105.126 51.8364 104.946 52.1519 104.714 52.4341C104.481 52.7163 104.199 52.9598 103.867 53.1646C103.541 53.3693 103.175 53.5298 102.771 53.646V53.6792C102.949 53.7345 103.12 53.8258 103.286 53.9531C103.452 54.0749 103.613 54.2188 103.768 54.3848C103.923 54.5508 104.069 54.7306 104.208 54.9243C104.351 55.1125 104.481 55.2979 104.598 55.4805L106.847 59ZM99.5425 49.1055V52.4175H100.705C101.28 52.4175 101.742 52.2515 102.091 51.9194C102.445 51.5819 102.622 51.1641 102.622 50.666C102.622 49.6257 102 49.1055 100.754 49.1055H99.5425Z" fill="#1C212A"/>
<path d="M106.847 59V59.1H107.03L106.931 58.9461L106.847 59ZM103.768 59L103.682 59.0517L103.711 59.1H103.768V59ZM101.917 55.937L101.831 55.9882L101.831 55.9887L101.917 55.937ZM101.128 54.8496L101.056 54.9189L101.059 54.9218L101.128 54.8496ZM100.721 54.5508L100.675 54.6396L100.679 54.6416L100.721 54.5508ZM99.5425 54.4429V54.3429H99.4425V54.4429H99.5425ZM99.5425 59V59.1H99.6425V59H99.5425ZM96.8613 59H96.7613V59.1H96.8613V59ZM96.8613 47.0967V46.9967H96.7613V47.0967H96.8613ZM105.253 51.4878L105.347 51.5221L105.348 51.5216L105.253 51.4878ZM103.867 53.1646L103.815 53.0794L103.814 53.0798L103.867 53.1646ZM102.771 53.646L102.744 53.5499L102.671 53.5707V53.646H102.771ZM102.771 53.6792H102.671V53.7527L102.742 53.7746L102.771 53.6792ZM103.286 53.9531L103.225 54.0325L103.227 54.0338L103.286 53.9531ZM104.208 54.9243L104.126 54.9825L104.128 54.9851L104.208 54.9243ZM104.598 55.4805L104.513 55.5342L104.513 55.5343L104.598 55.4805ZM99.5425 49.1055V49.0055H99.4425V49.1055H99.5425ZM99.5425 52.4175H99.4425V52.5175H99.5425V52.4175ZM102.091 51.9194L102.16 51.9918L102.16 51.9918L102.091 51.9194ZM106.847 58.9H103.768V59.1H106.847V58.9ZM103.853 58.9483L102.002 55.8853L101.831 55.9887L103.682 59.0517L103.853 58.9483ZM102.002 55.8859C101.863 55.6518 101.729 55.4422 101.6 55.2573L101.436 55.3716C101.562 55.5519 101.693 55.7574 101.831 55.9882L102.002 55.8859ZM101.6 55.2573C101.47 55.0703 101.336 54.9101 101.197 54.7774L101.059 54.9218C101.186 55.0437 101.312 55.1933 101.436 55.3716L101.6 55.2573ZM101.2 54.7804C101.066 54.64 100.92 54.5324 100.763 54.46L100.679 54.6416C100.81 54.702 100.936 54.7936 101.056 54.9188L101.2 54.7804ZM100.767 54.4621C100.614 54.3822 100.446 54.3429 100.265 54.3429V54.5429C100.416 54.5429 100.552 54.5754 100.675 54.6395L100.767 54.4621ZM100.265 54.3429H99.5425V54.5429H100.265V54.3429ZM99.4425 54.4429V59H99.6425V54.4429H99.4425ZM99.5425 58.9H96.8613V59.1H99.5425V58.9ZM96.9613 59V47.0967H96.7613V59H96.9613ZM96.8613 47.1967H101.111V46.9967H96.8613V47.1967ZM101.111 47.1967C102.546 47.1967 103.604 47.4652 104.301 47.9861C104.993 48.503 105.344 49.2794 105.344 50.334H105.544C105.544 49.2303 105.173 48.3882 104.421 47.8259C103.674 47.2677 102.565 46.9967 101.111 46.9967V47.1967ZM105.344 50.334C105.344 50.7387 105.282 51.1117 105.159 51.454L105.348 51.5216C105.479 51.1555 105.544 50.7594 105.544 50.334H105.344ZM105.159 51.4535C105.036 51.7917 104.862 52.0972 104.637 52.3705L104.791 52.4977C105.031 52.2066 105.216 51.8812 105.347 51.5221L105.159 51.4535ZM104.637 52.3705C104.412 52.6437 104.138 52.8801 103.815 53.0794L103.92 53.2497C104.26 53.0395 104.551 52.7889 104.791 52.4977L104.637 52.3705ZM103.814 53.0798C103.496 53.2792 103.14 53.436 102.744 53.5499L102.799 53.7421C103.211 53.6235 103.585 53.4594 103.92 53.2493L103.814 53.0798ZM102.671 53.646V53.6792H102.871V53.646H102.671ZM102.742 53.7746C102.906 53.8261 103.067 53.9114 103.225 54.0325L103.347 53.8738C103.173 53.7402 102.991 53.643 102.801 53.5838L102.742 53.7746ZM103.227 54.0338C103.387 54.1515 103.543 54.2911 103.694 54.453L103.841 54.3165C103.682 54.1464 103.517 53.9983 103.345 53.8725L103.227 54.0338ZM103.694 54.453C103.846 54.6157 103.99 54.7921 104.126 54.9824L104.289 54.8662C104.148 54.6691 103.999 54.4859 103.841 54.3165L103.694 54.453ZM104.128 54.9851C104.27 55.1711 104.399 55.3542 104.513 55.5342L104.682 55.4268C104.564 55.2415 104.432 55.0538 104.287 54.8636L104.128 54.9851ZM104.513 55.5343L106.763 59.0539L106.931 58.9461L104.682 55.4266L104.513 55.5343ZM99.4425 49.1055V52.4175H99.6425V49.1055H99.4425ZM99.5425 52.5175H100.705V52.3175H99.5425V52.5175ZM100.705 52.5175C101.3 52.5175 101.789 52.345 102.16 51.9918L102.022 51.847C101.695 52.158 101.26 52.3175 100.705 52.3175V52.5175ZM102.16 51.9918C102.534 51.635 102.722 51.1909 102.722 50.666H102.522C102.522 51.1373 102.356 51.5287 102.022 51.847L102.16 51.9918ZM102.722 50.666C102.722 50.1252 102.559 49.7031 102.219 49.4189C101.883 49.1375 101.388 49.0055 100.754 49.0055V49.2055C101.365 49.2055 101.805 49.3335 102.091 49.5723C102.373 49.8083 102.522 50.1664 102.522 50.666H102.722ZM100.754 49.0055H99.5425V49.2055H100.754V49.0055Z" fill="#1C212A" mask="url(#path-71-outside-12_2_66)"/>
<path d="M107.953 41.4419C103.057 38.945 99.6776 38.9346 94.1359 41.4619C94.0238 41.513 93.9252 41.3469 94.0258 41.2759L101.439 36.0434C101.475 36.0177 101.524 36.0191 101.559 36.047L108.074 41.2591C108.17 41.3357 108.062 41.4975 107.953 41.4419Z" fill="#D6E1F6"/>
<path d="M107.953 64.5581C103.057 67.055 99.6776 67.0654 94.1359 64.5381C94.0238 64.487 93.9252 64.6531 94.0258 64.7241L101.439 69.9566C101.475 69.9823 101.524 69.9809 101.559 69.953L108.074 64.7409C108.17 64.6643 108.062 64.5025 107.953 64.5581Z" fill="#D6E1F6"/>
<path d="M112.558 46.5467C115.055 51.4425 115.065 54.8224 112.538 60.3641C112.487 60.4762 112.653 60.5748 112.724 60.4742L117.957 53.0614C117.982 53.025 117.981 52.9761 117.953 52.9413L112.741 46.4261C112.664 46.3304 112.502 46.4376 112.558 46.5467Z" fill="#D6E1F6"/>
<path d="M89.4419 46.5467C86.945 51.4425 86.9346 54.8224 89.4619 60.3641C89.513 60.4762 89.3469 60.5748 89.2759 60.4742L84.0434 53.0614C84.0177 53.025 84.0191 52.9761 84.047 52.9413L89.2591 46.4261C89.3357 46.3304 89.4975 46.4376 89.4419 46.5467Z" fill="#D6E1F6"/>
</svg>
