<svg width="250" height="250" viewBox="0 0 250 250" fill="none" xmlns="http://www.w3.org/2000/svg">
<rect width="250" height="250" fill="#1C212A"/>
<path d="M78.5602 99.2247L78.1119 109.448C78.0509 110.839 79.1619 112 80.554 112H111.394C112.535 112 113.524 111.211 113.777 110.099L116.645 97.5198C116.861 96.5745 116.497 95.5913 115.719 95.0135L109.666 90.5209C109.282 90.2362 108.821 90.0685 108.344 90.0481C94.6251 89.4626 83.9877 94.3561 79.5127 97.4406C78.9256 97.8453 78.5914 98.5123 78.5602 99.2247Z" fill="#D6E1F6"/>
<mask id="path-2-outside-1_2_165" maskUnits="userSpaceOnUse" x="91.7138" y="95" width="19" height="14" fill="black">
<rect fill="white" x="91.7138" y="95" width="19" height="14"/>
<path d="M99.164 108H92.0751V96.0967H94.7562V105.825H99.164V108ZM100.774 108V96.0967H105.107C106.435 96.0967 107.456 96.3402 108.17 96.8271C108.884 97.3141 109.241 98.0003 109.241 98.8857C109.241 99.5277 109.023 100.089 108.585 100.571C108.154 101.052 107.6 101.387 106.925 101.575V101.608C107.772 101.714 108.447 102.026 108.951 102.546C109.46 103.067 109.714 103.7 109.714 104.447C109.714 105.537 109.324 106.403 108.544 107.045C107.764 107.682 106.698 108 105.348 108H100.774ZM103.455 98.0723V100.895H104.634C105.188 100.895 105.622 100.762 105.937 100.496C106.258 100.225 106.419 99.8542 106.419 99.3838C106.419 98.5094 105.766 98.0723 104.46 98.0723H103.455ZM103.455 102.887V106.024H104.908C105.528 106.024 106.012 105.881 106.361 105.593C106.715 105.305 106.892 104.912 106.892 104.414C106.892 103.938 106.718 103.565 106.369 103.293C106.026 103.022 105.544 102.887 104.925 102.887H103.455Z"/>
</mask>
<path d="M99.164 108H92.0751V96.0967H94.7562V105.825H99.164V108ZM100.774 108V96.0967H105.107C106.435 96.0967 107.456 96.3402 108.17 96.8271C108.884 97.3141 109.241 98.0003 109.241 98.8857C109.241 99.5277 109.023 100.089 108.585 100.571C108.154 101.052 107.6 101.387 106.925 101.575V101.608C107.772 101.714 108.447 102.026 108.951 102.546C109.46 103.067 109.714 103.7 109.714 104.447C109.714 105.537 109.324 106.403 108.544 107.045C107.764 107.682 106.698 108 105.348 108H100.774ZM103.455 98.0723V100.895H104.634C105.188 100.895 105.622 100.762 105.937 100.496C106.258 100.225 106.419 99.8542 106.419 99.3838C106.419 98.5094 105.766 98.0723 104.46 98.0723H103.455ZM103.455 102.887V106.024H104.908C105.528 106.024 106.012 105.881 106.361 105.593C106.715 105.305 106.892 104.912 106.892 104.414C106.892 103.938 106.718 103.565 106.369 103.293C106.026 103.022 105.544 102.887 104.925 102.887H103.455Z" fill="#1C212A"/>
<path d="M99.164 108V108.1H99.264V108H99.164ZM92.0751 108H91.9751V108.1H92.0751V108ZM92.0751 96.0967V95.9967H91.9751V96.0967H92.0751ZM94.7562 96.0967H94.8562V95.9967H94.7562V96.0967ZM94.7562 105.825H94.6562V105.925H94.7562V105.825ZM99.164 105.825H99.264V105.725H99.164V105.825ZM99.164 107.9H92.0751V108.1H99.164V107.9ZM92.1751 108V96.0967H91.9751V108H92.1751ZM92.0751 96.1967H94.7562V95.9967H92.0751V96.1967ZM94.6562 96.0967V105.825H94.8562V96.0967H94.6562ZM94.7562 105.925H99.164V105.725H94.7562V105.925ZM99.064 105.825V108H99.264V105.825H99.064ZM100.774 108H100.674V108.1H100.774V108ZM100.774 96.0967V95.9967H100.674V96.0967H100.774ZM108.585 100.571L108.511 100.504L108.511 100.504L108.585 100.571ZM106.925 101.575L106.898 101.479L106.825 101.499V101.575H106.925ZM106.925 101.608H106.825V101.697L106.913 101.708L106.925 101.608ZM108.951 102.546L108.879 102.616L108.879 102.616L108.951 102.546ZM108.544 107.045L108.607 107.123L108.607 107.123L108.544 107.045ZM103.455 98.0723V97.9723H103.355V98.0723H103.455ZM103.455 100.895H103.355V100.995H103.455V100.895ZM105.937 100.496L106.002 100.573L106.002 100.572L105.937 100.496ZM103.455 102.887V102.787H103.355V102.887H103.455ZM103.455 106.024H103.355V106.124H103.455V106.024ZM106.361 105.593L106.298 105.515L106.297 105.516L106.361 105.593ZM106.369 103.293L106.307 103.372L106.308 103.372L106.369 103.293ZM100.874 108V96.0967H100.674V108H100.874ZM100.774 96.1967H105.107V95.9967H100.774V96.1967ZM105.107 96.1967C106.425 96.1967 107.423 96.4387 108.114 96.9098L108.227 96.7445C107.489 96.2416 106.445 95.9967 105.107 95.9967V96.1967ZM108.114 96.9098C108.8 97.3776 109.141 98.0324 109.141 98.8857H109.341C109.341 97.9682 108.969 97.2507 108.227 96.7445L108.114 96.9098ZM109.141 98.8857C109.141 99.5025 108.932 100.04 108.511 100.504L108.659 100.638C109.113 100.138 109.341 99.5529 109.341 98.8857H109.141ZM108.511 100.504C108.093 100.97 107.557 101.295 106.898 101.479L106.952 101.672C107.644 101.479 108.214 101.134 108.66 100.638L108.511 100.504ZM106.825 101.575V101.608H107.025V101.575H106.825ZM106.913 101.708C107.741 101.81 108.394 102.115 108.879 102.616L109.022 102.477C108.5 101.937 107.803 101.617 106.938 101.509L106.913 101.708ZM108.879 102.616C109.369 103.117 109.614 103.726 109.614 104.447H109.814C109.814 103.675 109.55 103.016 109.022 102.476L108.879 102.616ZM109.614 104.447C109.614 105.51 109.235 106.347 108.48 106.968L108.607 107.123C109.413 106.46 109.814 105.565 109.814 104.447H109.614ZM108.481 106.968C107.723 107.585 106.683 107.9 105.348 107.9V108.1C106.713 108.1 107.804 107.778 108.607 107.123L108.481 106.968ZM105.348 107.9H100.774V108.1H105.348V107.9ZM103.355 98.0723V100.895H103.555V98.0723H103.355ZM103.455 100.995H104.634V100.795H103.455V100.995ZM104.634 100.995C105.203 100.995 105.663 100.858 106.002 100.573L105.873 100.42C105.581 100.666 105.172 100.795 104.634 100.795V100.995ZM106.002 100.572C106.348 100.28 106.519 99.8797 106.519 99.3838H106.319C106.319 99.8287 106.168 100.17 105.873 100.42L106.002 100.572ZM106.519 99.3838C106.519 98.9177 106.342 98.5565 105.985 98.317C105.634 98.0823 105.121 97.9723 104.46 97.9723V98.1723C105.105 98.1723 105.571 98.2808 105.873 98.4832C106.169 98.6809 106.319 98.9756 106.319 99.3838H106.519ZM104.46 97.9723H103.455V98.1723H104.46V97.9723ZM103.355 102.887V106.024H103.555V102.887H103.355ZM103.455 106.124H104.908V105.924H103.455V106.124ZM104.908 106.124C105.543 106.124 106.052 105.977 106.424 105.67L106.297 105.516C105.972 105.784 105.513 105.924 104.908 105.924V106.124ZM106.424 105.67C106.804 105.362 106.992 104.939 106.992 104.414H106.792C106.792 104.885 106.626 105.248 106.298 105.515L106.424 105.67ZM106.992 104.414C106.992 103.91 106.806 103.506 106.43 103.215L106.308 103.372C106.63 103.623 106.792 103.966 106.792 104.414H106.992ZM106.431 103.215C106.064 102.925 105.558 102.787 104.925 102.787V102.987C105.531 102.987 105.988 103.119 106.307 103.372L106.431 103.215ZM104.925 102.787H103.455V102.987H104.925V102.787Z" fill="#1C212A" mask="url(#path-2-outside-1_2_165)"/>
<path d="M171.44 99.2247L171.888 109.448C171.949 110.839 170.838 112 169.446 112H138.606C137.465 112 136.476 111.211 136.223 110.099L133.355 97.5198C133.139 96.5745 133.503 95.5913 134.281 95.0135L140.334 90.5209C140.718 90.2362 141.179 90.0685 141.656 90.0481C155.375 89.4626 166.012 94.3561 170.487 97.4406C171.074 97.8453 171.409 98.5123 171.44 99.2247Z" fill="#D6E1F6"/>
<mask id="path-5-outside-2_2_165" maskUnits="userSpaceOnUse" x="140.631" y="95" width="21" height="14" fill="black">
<rect fill="white" x="140.631" y="95" width="21" height="14"/>
<path d="M150.978 108H147.899L146.048 104.937C145.909 104.705 145.776 104.497 145.649 104.314C145.522 104.132 145.392 103.977 145.259 103.85C145.132 103.717 144.996 103.617 144.852 103.551C144.714 103.479 144.562 103.443 144.396 103.443H143.673V108H140.992V96.0967H145.242C148.131 96.0967 149.575 97.1758 149.575 99.334C149.575 99.749 149.512 100.134 149.384 100.488C149.257 100.836 149.077 101.152 148.845 101.434C148.612 101.716 148.33 101.96 147.998 102.165C147.672 102.369 147.306 102.53 146.902 102.646V102.679C147.08 102.735 147.251 102.826 147.417 102.953C147.583 103.075 147.744 103.219 147.899 103.385C148.054 103.551 148.2 103.731 148.339 103.924C148.482 104.112 148.612 104.298 148.729 104.48L150.978 108ZM143.673 98.1055V101.417H144.836C145.411 101.417 145.873 101.251 146.222 100.919C146.576 100.582 146.753 100.164 146.753 99.666C146.753 98.6257 146.131 98.1055 144.885 98.1055H143.673ZM152.099 108V96.0967H156.432C157.76 96.0967 158.781 96.3402 159.495 96.8271C160.209 97.3141 160.566 98.0003 160.566 98.8857C160.566 99.5277 160.347 100.089 159.91 100.571C159.478 101.052 158.925 101.387 158.25 101.575V101.608C159.096 101.714 159.771 102.026 160.275 102.546C160.784 103.067 161.039 103.7 161.039 104.447C161.039 105.537 160.649 106.403 159.868 107.045C159.088 107.682 158.023 108 156.673 108H152.099ZM154.78 98.0723V100.895H155.959C156.512 100.895 156.946 100.762 157.262 100.496C157.583 100.225 157.743 99.8542 157.743 99.3838C157.743 98.5094 157.09 98.0723 155.784 98.0723H154.78ZM154.78 102.887V106.024H156.233C156.852 106.024 157.337 105.881 157.685 105.593C158.039 105.305 158.216 104.912 158.216 104.414C158.216 103.938 158.042 103.565 157.694 103.293C157.35 103.022 156.869 102.887 156.249 102.887H154.78Z"/>
</mask>
<path d="M150.978 108H147.899L146.048 104.937C145.909 104.705 145.776 104.497 145.649 104.314C145.522 104.132 145.392 103.977 145.259 103.85C145.132 103.717 144.996 103.617 144.852 103.551C144.714 103.479 144.562 103.443 144.396 103.443H143.673V108H140.992V96.0967H145.242C148.131 96.0967 149.575 97.1758 149.575 99.334C149.575 99.749 149.512 100.134 149.384 100.488C149.257 100.836 149.077 101.152 148.845 101.434C148.612 101.716 148.33 101.96 147.998 102.165C147.672 102.369 147.306 102.53 146.902 102.646V102.679C147.08 102.735 147.251 102.826 147.417 102.953C147.583 103.075 147.744 103.219 147.899 103.385C148.054 103.551 148.2 103.731 148.339 103.924C148.482 104.112 148.612 104.298 148.729 104.48L150.978 108ZM143.673 98.1055V101.417H144.836C145.411 101.417 145.873 101.251 146.222 100.919C146.576 100.582 146.753 100.164 146.753 99.666C146.753 98.6257 146.131 98.1055 144.885 98.1055H143.673ZM152.099 108V96.0967H156.432C157.76 96.0967 158.781 96.3402 159.495 96.8271C160.209 97.3141 160.566 98.0003 160.566 98.8857C160.566 99.5277 160.347 100.089 159.91 100.571C159.478 101.052 158.925 101.387 158.25 101.575V101.608C159.096 101.714 159.771 102.026 160.275 102.546C160.784 103.067 161.039 103.7 161.039 104.447C161.039 105.537 160.649 106.403 159.868 107.045C159.088 107.682 158.023 108 156.673 108H152.099ZM154.78 98.0723V100.895H155.959C156.512 100.895 156.946 100.762 157.262 100.496C157.583 100.225 157.743 99.8542 157.743 99.3838C157.743 98.5094 157.09 98.0723 155.784 98.0723H154.78ZM154.78 102.887V106.024H156.233C156.852 106.024 157.337 105.881 157.685 105.593C158.039 105.305 158.216 104.912 158.216 104.414C158.216 103.938 158.042 103.565 157.694 103.293C157.35 103.022 156.869 102.887 156.249 102.887H154.78Z" fill="#1C212A"/>
<path d="M150.978 108V108.11H151.179L151.071 107.941L150.978 108ZM147.899 108L147.804 108.057L147.837 108.11H147.899V108ZM146.048 104.937L145.953 104.993L145.953 104.994L146.048 104.937ZM145.259 103.85L145.179 103.926L145.183 103.929L145.259 103.85ZM144.852 103.551L144.801 103.648L144.806 103.651L144.852 103.551ZM143.673 103.443V103.333H143.563V103.443H143.673ZM143.673 108V108.11H143.783V108H143.673ZM140.992 108H140.882V108.11H140.992V108ZM140.992 96.0967V95.9867H140.882V96.0967H140.992ZM149.384 100.488L149.488 100.526L149.488 100.525L149.384 100.488ZM147.998 102.165L147.94 102.071L147.94 102.071L147.998 102.165ZM146.902 102.646L146.872 102.54L146.792 102.563V102.646H146.902ZM146.902 102.679H146.792V102.76L146.87 102.784L146.902 102.679ZM147.417 102.953L147.35 103.04L147.352 103.042L147.417 102.953ZM148.339 103.924L148.249 103.988L148.251 103.991L148.339 103.924ZM148.729 104.48L148.636 104.54L148.636 104.54L148.729 104.48ZM143.673 98.1055V97.9955H143.563V98.1055H143.673ZM143.673 101.417H143.563V101.527H143.673V101.417ZM146.222 100.919L146.298 100.999L146.298 100.999L146.222 100.919ZM150.978 107.89H147.899V108.11H150.978V107.89ZM147.993 107.943L146.142 104.88L145.953 104.994L147.804 108.057L147.993 107.943ZM146.142 104.881C146.003 104.647 145.868 104.437 145.739 104.252L145.559 104.377C145.684 104.557 145.816 104.763 145.953 104.993L146.142 104.881ZM145.739 104.252C145.609 104.064 145.474 103.903 145.335 103.77L145.183 103.929C145.309 104.05 145.435 104.199 145.559 104.377L145.739 104.252ZM145.338 103.773C145.203 103.632 145.057 103.524 144.898 103.451L144.806 103.651C144.936 103.71 145.06 103.801 145.18 103.926L145.338 103.773ZM144.903 103.453C144.748 103.373 144.578 103.333 144.396 103.333V103.553C144.545 103.553 144.68 103.585 144.801 103.648L144.903 103.453ZM144.396 103.333H143.673V103.553H144.396V103.333ZM143.563 103.443V108H143.783V103.443H143.563ZM143.673 107.89H140.992V108.11H143.673V107.89ZM141.102 108V96.0967H140.882V108H141.102ZM140.992 96.2067H145.242V95.9867H140.992V96.2067ZM145.242 96.2067C146.676 96.2067 147.731 96.4751 148.426 96.9941C149.115 97.5087 149.465 98.2819 149.465 99.334H149.685C149.685 98.2279 149.314 97.3824 148.558 96.8179C147.808 96.2579 146.697 95.9867 145.242 95.9867V96.2067ZM149.465 99.334C149.465 99.7376 149.403 100.11 149.281 100.451L149.488 100.525C149.62 100.158 149.685 99.7604 149.685 99.334H149.465ZM149.281 100.45C149.158 100.787 148.984 101.092 148.76 101.364L148.93 101.504C149.17 101.212 149.356 100.886 149.488 100.526L149.281 100.45ZM148.76 101.364C148.536 101.636 148.263 101.872 147.94 102.071L148.056 102.258C148.398 102.048 148.689 101.796 148.93 101.504L148.76 101.364ZM147.94 102.071C147.623 102.27 147.267 102.427 146.872 102.54L146.933 102.752C147.346 102.633 147.721 102.468 148.057 102.258L147.94 102.071ZM146.792 102.646V102.679H147.012V102.646H146.792ZM146.87 102.784C147.033 102.835 147.193 102.92 147.35 103.04L147.484 102.866C147.309 102.732 147.126 102.634 146.935 102.574L146.87 102.784ZM147.352 103.042C147.512 103.159 147.667 103.298 147.818 103.46L147.979 103.31C147.82 103.139 147.654 102.991 147.482 102.864L147.352 103.042ZM147.818 103.46C147.97 103.622 148.113 103.798 148.249 103.988L148.428 103.86C148.287 103.663 148.137 103.479 147.979 103.31L147.818 103.46ZM148.251 103.991C148.393 104.177 148.521 104.36 148.636 104.54L148.821 104.421C148.703 104.236 148.572 104.048 148.426 103.857L148.251 103.991ZM148.636 104.54L150.885 108.059L151.071 107.941L148.821 104.421L148.636 104.54ZM143.563 98.1055V101.417H143.783V98.1055H143.563ZM143.673 101.527H144.836V101.307H143.673V101.527ZM144.836 101.527C145.433 101.527 145.925 101.354 146.298 100.999L146.146 100.84C145.822 101.149 145.389 101.307 144.836 101.307V101.527ZM146.298 100.999C146.674 100.64 146.863 100.194 146.863 99.666H146.643C146.643 100.135 146.478 100.523 146.146 100.84L146.298 100.999ZM146.863 99.666C146.863 99.1232 146.7 98.6978 146.357 98.4112C146.017 98.1277 145.521 97.9955 144.885 97.9955V98.2155C145.495 98.2155 145.932 98.3433 146.216 98.58C146.495 98.8136 146.643 99.1685 146.643 99.666H146.863ZM144.885 97.9955H143.673V98.2155H144.885V97.9955ZM152.099 108H151.989V108.11H152.099V108ZM152.099 96.0967V95.9867H151.989V96.0967H152.099ZM159.91 100.571L159.828 100.497L159.828 100.497L159.91 100.571ZM158.25 101.575L158.22 101.469L158.14 101.492V101.575H158.25ZM158.25 101.608H158.14V101.706L158.236 101.718L158.25 101.608ZM160.275 102.546L160.196 102.623L160.196 102.623L160.275 102.546ZM159.868 107.045L159.938 107.131L159.938 107.13L159.868 107.045ZM154.78 98.0723V97.9623H154.67V98.0723H154.78ZM154.78 100.895H154.67V101.005H154.78V100.895ZM157.262 100.496L157.333 100.58L157.333 100.58L157.262 100.496ZM154.78 102.887V102.777H154.67V102.887H154.78ZM154.78 106.024H154.67V106.134H154.78V106.024ZM157.685 105.593L157.616 105.507L157.615 105.508L157.685 105.593ZM157.694 103.293L157.625 103.38L157.626 103.38L157.694 103.293ZM152.209 108V96.0967H151.989V108H152.209ZM152.099 96.2067H156.432V95.9867H152.099V96.2067ZM156.432 96.2067C157.749 96.2067 158.745 96.4485 159.433 96.918L159.557 96.7363C158.817 96.2318 157.771 95.9867 156.432 95.9867V96.2067ZM159.433 96.918C160.116 97.3839 160.456 98.0356 160.456 98.8857H160.676C160.676 97.965 160.302 97.2443 159.557 96.7363L159.433 96.918ZM160.456 98.8857C160.456 99.4999 160.247 100.035 159.828 100.497L159.991 100.645C160.447 100.143 160.676 99.5554 160.676 98.8857H160.456ZM159.828 100.497C159.411 100.962 158.877 101.286 158.22 101.469L158.279 101.681C158.973 101.488 159.545 101.143 159.992 100.644L159.828 100.497ZM158.14 101.575V101.608H158.36V101.575H158.14ZM158.236 101.718C159.063 101.82 159.713 102.124 160.196 102.623L160.354 102.47C159.83 101.929 159.13 101.607 158.263 101.499L158.236 101.718ZM160.196 102.623C160.685 103.122 160.929 103.728 160.929 104.447H161.149C161.149 103.672 160.883 103.011 160.354 102.469L160.196 102.623ZM160.929 104.447C160.929 105.508 160.551 106.341 159.798 106.96L159.938 107.13C160.746 106.466 161.149 105.567 161.149 104.447H160.929ZM159.799 106.96C159.044 107.576 158.006 107.89 156.673 107.89V108.11C158.039 108.11 159.132 107.788 159.938 107.131L159.799 106.96ZM156.673 107.89H152.099V108.11H156.673V107.89ZM154.67 98.0723V100.895H154.89V98.0723H154.67ZM154.78 101.005H155.959V100.785H154.78V101.005ZM155.959 101.005C156.529 101.005 156.992 100.868 157.333 100.58L157.191 100.412C156.901 100.656 156.495 100.785 155.959 100.785V101.005ZM157.333 100.58C157.682 100.285 157.853 99.8822 157.853 99.3838H157.633C157.633 99.8261 157.484 100.164 157.191 100.412L157.333 100.58ZM157.853 99.3838C157.853 98.9148 157.676 98.5503 157.315 98.3087C156.962 98.0724 156.446 97.9623 155.784 97.9623V98.1823C156.429 98.1823 156.892 98.2907 157.192 98.4916C157.485 98.6872 157.633 98.9785 157.633 99.3838H157.853ZM155.784 97.9623H154.78V98.1823H155.784V97.9623ZM154.67 102.887V106.024H154.89V102.887H154.67ZM154.78 106.134H156.233V105.914H154.78V106.134ZM156.233 106.134C156.868 106.134 157.381 105.987 157.755 105.678L157.615 105.508C157.292 105.774 156.836 105.914 156.233 105.914V106.134ZM157.755 105.678C158.137 105.367 158.326 104.942 158.326 104.414H158.106C158.106 104.882 157.942 105.243 157.616 105.507L157.755 105.678ZM158.326 104.414C158.326 103.907 158.139 103.5 157.761 103.207L157.626 103.38C157.946 103.629 158.106 103.969 158.106 104.414H158.326ZM157.762 103.207C157.393 102.915 156.884 102.777 156.249 102.777V102.997C156.854 102.997 157.308 103.129 157.625 103.38L157.762 103.207ZM156.249 102.777H154.78V102.997H156.249V102.777Z" fill="#1C212A" mask="url(#path-5-outside-2_2_165)"/>
<path d="M138.203 128H162.036C163.485 128 164.461 129.502 164.03 130.885C160.959 140.738 164.273 150.571 167.391 156.152C168.09 157.403 167.437 159.056 166.025 159.301C144.414 163.05 137.254 150.817 136.398 143.93C135.751 138.731 136.039 132.728 136.248 129.798C136.321 128.774 137.178 128 138.203 128Z" fill="#D6E1F6"/>
<mask id="path-8-outside-3_2_165" maskUnits="userSpaceOnUse" x="140.75" y="133" width="20" height="14" fill="black">
<rect fill="white" x="140.75" y="133" width="20" height="14"/>
<path d="M151.097 146H148.018L146.167 142.937C146.028 142.705 145.895 142.497 145.768 142.314C145.641 142.132 145.511 141.977 145.378 141.85C145.251 141.717 145.115 141.617 144.971 141.551C144.833 141.479 144.681 141.443 144.515 141.443H143.792V146H141.111V134.097H145.361C148.25 134.097 149.694 135.176 149.694 137.334C149.694 137.749 149.631 138.134 149.503 138.488C149.376 138.836 149.196 139.152 148.964 139.434C148.731 139.716 148.449 139.96 148.117 140.165C147.791 140.369 147.425 140.53 147.021 140.646V140.679C147.199 140.735 147.37 140.826 147.536 140.953C147.702 141.075 147.863 141.219 148.018 141.385C148.173 141.551 148.319 141.731 148.458 141.924C148.601 142.112 148.731 142.298 148.848 142.48L151.097 146ZM143.792 136.105V139.417H144.955C145.53 139.417 145.992 139.251 146.341 138.919C146.695 138.582 146.872 138.164 146.872 137.666C146.872 136.626 146.25 136.105 145.004 136.105H143.792ZM160.228 136.28H156.833V146H154.144V136.28H150.765V134.097H160.228V136.28Z"/>
</mask>
<path d="M151.097 146H148.018L146.167 142.937C146.028 142.705 145.895 142.497 145.768 142.314C145.641 142.132 145.511 141.977 145.378 141.85C145.251 141.717 145.115 141.617 144.971 141.551C144.833 141.479 144.681 141.443 144.515 141.443H143.792V146H141.111V134.097H145.361C148.25 134.097 149.694 135.176 149.694 137.334C149.694 137.749 149.631 138.134 149.503 138.488C149.376 138.836 149.196 139.152 148.964 139.434C148.731 139.716 148.449 139.96 148.117 140.165C147.791 140.369 147.425 140.53 147.021 140.646V140.679C147.199 140.735 147.37 140.826 147.536 140.953C147.702 141.075 147.863 141.219 148.018 141.385C148.173 141.551 148.319 141.731 148.458 141.924C148.601 142.112 148.731 142.298 148.848 142.48L151.097 146ZM143.792 136.105V139.417H144.955C145.53 139.417 145.992 139.251 146.341 138.919C146.695 138.582 146.872 138.164 146.872 137.666C146.872 136.626 146.25 136.105 145.004 136.105H143.792ZM160.228 136.28H156.833V146H154.144V136.28H150.765V134.097H160.228V136.28Z" fill="#1C212A"/>
<path d="M151.097 146V146.1H151.28L151.181 145.946L151.097 146ZM148.018 146L147.932 146.052L147.961 146.1H148.018V146ZM146.167 142.937L146.081 142.988L146.081 142.989L146.167 142.937ZM145.378 141.85L145.306 141.919L145.309 141.922L145.378 141.85ZM144.971 141.551L144.925 141.64L144.929 141.642L144.971 141.551ZM143.792 141.443V141.343H143.692V141.443H143.792ZM143.792 146V146.1H143.892V146H143.792ZM141.111 146H141.011V146.1H141.111V146ZM141.111 134.097V133.997H141.011V134.097H141.111ZM149.503 138.488L149.597 138.522L149.598 138.522L149.503 138.488ZM148.117 140.165L148.065 140.079L148.064 140.08L148.117 140.165ZM147.021 140.646L146.994 140.55L146.921 140.571V140.646H147.021ZM147.021 140.679H146.921V140.753L146.992 140.775L147.021 140.679ZM147.536 140.953L147.475 141.033L147.477 141.034L147.536 140.953ZM148.458 141.924L148.376 141.982L148.378 141.985L148.458 141.924ZM148.848 142.48L148.763 142.534L148.763 142.534L148.848 142.48ZM143.792 136.105V136.005H143.692V136.105H143.792ZM143.792 139.417H143.692V139.517H143.792V139.417ZM146.341 138.919L146.41 138.992L146.41 138.992L146.341 138.919ZM151.097 145.9H148.018V146.1H151.097V145.9ZM148.103 145.948L146.252 142.885L146.081 142.989L147.932 146.052L148.103 145.948ZM146.252 142.886C146.113 142.652 145.979 142.442 145.85 142.257L145.686 142.372C145.812 142.552 145.943 142.757 146.081 142.988L146.252 142.886ZM145.85 142.257C145.72 142.07 145.586 141.91 145.447 141.777L145.309 141.922C145.436 142.044 145.562 142.193 145.686 142.372L145.85 142.257ZM145.45 141.78C145.316 141.64 145.17 141.532 145.013 141.46L144.929 141.642C145.06 141.702 145.186 141.794 145.306 141.919L145.45 141.78ZM145.017 141.462C144.864 141.382 144.696 141.343 144.515 141.343V141.543C144.666 141.543 144.802 141.575 144.925 141.64L145.017 141.462ZM144.515 141.343H143.792V141.543H144.515V141.343ZM143.692 141.443V146H143.892V141.443H143.692ZM143.792 145.9H141.111V146.1H143.792V145.9ZM141.211 146V134.097H141.011V146H141.211ZM141.111 134.197H145.361V133.997H141.111V134.197ZM145.361 134.197C146.796 134.197 147.854 134.465 148.551 134.986C149.243 135.503 149.594 136.279 149.594 137.334H149.794C149.794 136.23 149.423 135.388 148.671 134.826C147.924 134.268 146.815 133.997 145.361 133.997V134.197ZM149.594 137.334C149.594 137.739 149.532 138.112 149.409 138.454L149.598 138.522C149.729 138.156 149.794 137.759 149.794 137.334H149.594ZM149.409 138.453C149.286 138.792 149.112 139.097 148.887 139.371L149.041 139.498C149.281 139.207 149.466 138.881 149.597 138.522L149.409 138.453ZM148.887 139.371C148.662 139.644 148.388 139.88 148.065 140.079L148.17 140.25C148.51 140.04 148.801 139.789 149.041 139.498L148.887 139.371ZM148.064 140.08C147.746 140.279 147.39 140.436 146.994 140.55L147.049 140.742C147.461 140.624 147.835 140.459 148.17 140.249L148.064 140.08ZM146.921 140.646V140.679H147.121V140.646H146.921ZM146.992 140.775C147.156 140.826 147.317 140.911 147.475 141.032L147.597 140.874C147.423 140.74 147.241 140.643 147.051 140.584L146.992 140.775ZM147.477 141.034C147.637 141.151 147.793 141.291 147.944 141.453L148.091 141.317C147.932 141.146 147.767 140.998 147.595 140.872L147.477 141.034ZM147.944 141.453C148.096 141.616 148.24 141.792 148.376 141.982L148.539 141.866C148.398 141.669 148.249 141.486 148.091 141.317L147.944 141.453ZM148.378 141.985C148.52 142.171 148.649 142.354 148.763 142.534L148.932 142.427C148.814 142.242 148.682 142.054 148.537 141.864L148.378 141.985ZM148.763 142.534L151.013 146.054L151.181 145.946L148.932 142.427L148.763 142.534ZM143.692 136.105V139.417H143.892V136.105H143.692ZM143.792 139.517H144.955V139.317H143.792V139.517ZM144.955 139.517C145.55 139.517 146.039 139.345 146.41 138.992L146.272 138.847C145.945 139.158 145.51 139.317 144.955 139.317V139.517ZM146.41 138.992C146.784 138.635 146.972 138.191 146.972 137.666H146.772C146.772 138.137 146.606 138.529 146.272 138.847L146.41 138.992ZM146.972 137.666C146.972 137.125 146.809 136.703 146.469 136.419C146.133 136.138 145.638 136.005 145.004 136.005V136.205C145.615 136.205 146.055 136.333 146.341 136.572C146.623 136.808 146.772 137.166 146.772 137.666H146.972ZM145.004 136.005H143.792V136.205H145.004V136.005ZM160.228 136.28V136.38H160.328V136.28H160.228ZM156.833 136.28V136.18H156.733V136.28H156.833ZM156.833 146V146.1H156.933V146H156.833ZM154.144 146H154.044V146.1H154.144V146ZM154.144 136.28H154.244V136.18H154.144V136.28ZM150.765 136.28H150.665V136.38H150.765V136.28ZM150.765 134.097V133.997H150.665V134.097H150.765ZM160.228 134.097H160.328V133.997H160.228V134.097ZM160.228 136.18H156.833V136.38H160.228V136.18ZM156.733 136.28V146H156.933V136.28H156.733ZM156.833 145.9H154.144V146.1H156.833V145.9ZM154.244 146V136.28H154.044V146H154.244ZM154.144 136.18H150.765V136.38H154.144V136.18ZM150.865 136.28V134.097H150.665V136.28H150.865ZM150.765 134.197H160.228V133.997H150.765V134.197ZM160.128 134.097V136.28H160.328V134.097H160.128Z" fill="#1C212A" mask="url(#path-8-outside-3_2_165)"/>
<path d="M111.797 128H87.9641C86.5154 128 85.5394 129.502 85.9704 130.885C89.041 140.738 85.7268 150.571 82.6088 156.152C81.9099 157.403 82.5632 159.056 83.9751 159.301C105.586 163.05 112.746 150.817 113.602 143.93C114.249 138.731 113.961 132.728 113.752 129.798C113.679 128.774 112.822 128 111.797 128Z" fill="#D6E1F6"/>
<mask id="path-11-outside-4_2_165" maskUnits="userSpaceOnUse" x="92.5" y="133" width="17" height="14" fill="black">
<rect fill="white" x="92.5" y="133" width="17" height="14"/>
<path d="M99.9502 146H92.8613V134.097H95.5425V143.825H99.9502V146ZM108.791 136.28H105.396V146H102.706V136.28H99.3276V134.097H108.791V136.28Z"/>
</mask>
<path d="M99.9502 146H92.8613V134.097H95.5425V143.825H99.9502V146ZM108.791 136.28H105.396V146H102.706V136.28H99.3276V134.097H108.791V136.28Z" fill="#1C212A"/>
<path d="M99.9502 146V146.1H100.05V146H99.9502ZM92.8613 146H92.7613V146.1H92.8613V146ZM92.8613 134.097V133.997H92.7613V134.097H92.8613ZM95.5425 134.097H95.6425V133.997H95.5425V134.097ZM95.5425 143.825H95.4425V143.925H95.5425V143.825ZM99.9502 143.825H100.05V143.725H99.9502V143.825ZM99.9502 145.9H92.8613V146.1H99.9502V145.9ZM92.9613 146V134.097H92.7613V146H92.9613ZM92.8613 134.197H95.5425V133.997H92.8613V134.197ZM95.4425 134.097V143.825H95.6425V134.097H95.4425ZM95.5425 143.925H99.9502V143.725H95.5425V143.925ZM99.8502 143.825V146H100.05V143.825H99.8502ZM108.791 136.28V136.38H108.891V136.28H108.791ZM105.396 136.28V136.18H105.296V136.28H105.396ZM105.396 146V146.1H105.496V146H105.396ZM102.706 146H102.606V146.1H102.706V146ZM102.706 136.28H102.806V136.18H102.706V136.28ZM99.3276 136.28H99.2276V136.38H99.3276V136.28ZM99.3276 134.097V133.997H99.2276V134.097H99.3276ZM108.791 134.097H108.891V133.997H108.791V134.097ZM108.791 136.18H105.396V136.38H108.791V136.18ZM105.296 136.28V146H105.496V136.28H105.296ZM105.396 145.9H102.706V146.1H105.396V145.9ZM102.806 146V136.28H102.606V146H102.806ZM102.706 136.18H99.3276V136.38H102.706V136.18ZM99.4276 136.28V134.097H99.2276V136.28H99.4276ZM99.3276 134.197H108.791V133.997H99.3276V134.197ZM108.691 134.097V136.28H108.891V134.097H108.691Z" fill="#1C212A" mask="url(#path-11-outside-4_2_165)"/>
</svg>
