<svg width="250" height="250" viewBox="0 0 250 250" fill="none" xmlns="http://www.w3.org/2000/svg">
<rect width="250" height="250" fill="#1C212A"/>
<path fill-rule="evenodd" clip-rule="evenodd" d="M96.5 73C96.7761 73 97 72.7761 97 72.5V65.5C97 65.2239 97.2239 65 97.5 65H104.5C104.776 65 105 65.2239 105 65.5V72.5C105 72.7761 105.224 73 105.5 73H112.5C112.776 73 113 73.2239 113 73.5V80.5C113 80.7761 112.776 81 112.5 81H105.5C105.224 81 105 81.2239 105 81.5V88.5C105 88.7761 104.776 89 104.5 89H97.5C97.2239 89 97 88.7761 97 88.5V81.5C97 81.2239 96.7761 81 96.5 81H89.5C89.2239 81 89 80.7761 89 80.5V73.5C89 73.2239 89.2239 73 89.5 73H96.5Z" fill="#D6E1F6"/>
<rect x="89" y="121" width="8" height="8" rx="0.5" fill="#D6E1F6"/>
<path fill-rule="evenodd" clip-rule="evenodd" d="M97.8 120C97.9105 120 98 119.91 98 119.8V114.2C98 114.09 98.0895 114 98.2 114H103.8C103.91 114 104 114.09 104 114.2V120.5C104 121.328 104.672 122 105.5 122H111.8C111.91 122 112 122.09 112 122.2V127.8C112 127.91 111.91 128 111.8 128H105.5C104.672 128 104 128.672 104 129.5V135.8C104 135.91 103.91 136 103.8 136H98.2C98.0895 136 98 135.91 98 135.8V130.2C98 130.09 97.9105 130 97.8 130H97.2C97.0895 130 97 130.09 97 130.2V136.5C97 136.776 97.2239 137 97.5 137H104.5C104.776 137 105 136.776 105 136.5V129.5C105 129.224 105.224 129 105.5 129H112.5C112.776 129 113 128.776 113 128.5V121.5C113 121.224 112.776 121 112.5 121H105.5C105.224 121 105 120.776 105 120.5V113.5C105 113.224 104.776 113 104.5 113H97.5C97.2239 113 97 113.224 97 113.5V119.8C97 119.91 97.0895 120 97.2 120H97.8Z" fill="#D6E1F6"/>
<rect width="8" height="8" rx="0.5" transform="matrix(-1 0 0 1 113 169)" fill="#D6E1F6"/>
<path fill-rule="evenodd" clip-rule="evenodd" d="M104.2 168C104.09 168 104 167.91 104 167.8V162.2C104 162.09 103.91 162 103.8 162H98.2C98.0895 162 98 162.09 98 162.2V168.5C98 169.328 97.3284 170 96.5 170H90.2C90.0895 170 90 170.09 90 170.2V175.8C90 175.91 90.0895 176 90.2 176H96.5C97.3284 176 98 176.672 98 177.5V183.8C98 183.91 98.0895 184 98.2 184H103.8C103.91 184 104 183.91 104 183.8V178.2C104 178.09 104.09 178 104.2 178H104.8C104.91 178 105 178.09 105 178.2V184.5C105 184.776 104.776 185 104.5 185H97.5C97.2239 185 97 184.776 97 184.5V177.5C97 177.224 96.7761 177 96.5 177H89.5C89.2239 177 89 176.776 89 176.5V169.5C89 169.224 89.2239 169 89.5 169H96.5C96.7761 169 97 168.776 97 168.5V161.5C97 161.224 97.2239 161 97.5 161H104.5C104.776 161 105 161.224 105 161.5V167.8C105 167.91 104.91 168 104.8 168H104.2Z" fill="#D6E1F6"/>
<rect width="8" height="8" rx="0.5" transform="matrix(4.37114e-08 1 1 -4.37114e-08 145 113)" fill="#D6E1F6"/>
<path fill-rule="evenodd" clip-rule="evenodd" d="M144 121.8C144 121.91 143.91 122 143.8 122L138.2 122C138.09 122 138 122.09 138 122.2L138 127.8C138 127.91 138.09 128 138.2 128L144.5 128C145.328 128 146 128.672 146 129.5L146 135.8C146 135.91 146.09 136 146.2 136L151.8 136C151.91 136 152 135.91 152 135.8L152 129.5C152 128.672 152.672 128 153.5 128L159.8 128C159.91 128 160 127.91 160 127.8L160 122.2C160 122.09 159.91 122 159.8 122L154.2 122C154.09 122 154 121.91 154 121.8L154 121.2C154 121.09 154.09 121 154.2 121L160.5 121C160.776 121 161 121.224 161 121.5L161 128.5C161 128.776 160.776 129 160.5 129L153.5 129C153.224 129 153 129.224 153 129.5L153 136.5C153 136.776 152.776 137 152.5 137L145.5 137C145.224 137 145 136.776 145 136.5L145 129.5C145 129.224 144.776 129 144.5 129L137.5 129C137.224 129 137 128.776 137 128.5L137 121.5C137 121.224 137.224 121 137.5 121L143.8 121C143.91 121 144 121.09 144 121.2L144 121.8Z" fill="#D6E1F6"/>
<rect x="145" y="185" width="8" height="8" rx="0.5" transform="rotate(-90 145 185)" fill="#D6E1F6"/>
<path fill-rule="evenodd" clip-rule="evenodd" d="M144 176.2C144 176.09 143.91 176 143.8 176L138.2 176C138.09 176 138 175.91 138 175.8L138 170.2C138 170.09 138.09 170 138.2 170L144.5 170C145.328 170 146 169.328 146 168.5L146 162.2C146 162.09 146.09 162 146.2 162L151.8 162C151.91 162 152 162.09 152 162.2L152 168.5C152 169.328 152.672 170 153.5 170L159.8 170C159.91 170 160 170.09 160 170.2L160 175.8C160 175.91 159.91 176 159.8 176L154.2 176C154.09 176 154 176.09 154 176.2L154 176.8C154 176.91 154.09 177 154.2 177L160.5 177C160.776 177 161 176.776 161 176.5L161 169.5C161 169.224 160.776 169 160.5 169L153.5 169C153.224 169 153 168.776 153 168.5L153 161.5C153 161.224 152.776 161 152.5 161L145.5 161C145.224 161 145 161.224 145 161.5L145 168.5C145 168.776 144.776 169 144.5 169L137.5 169C137.224 169 137 169.224 137 169.5L137 176.5C137 176.776 137.224 177 137.5 177L143.8 177C143.91 177 144 176.91 144 176.8L144 176.2Z" fill="#D6E1F6"/>
</svg>
