<svg width="250" height="250" viewBox="0 0 250 250" fill="none" xmlns="http://www.w3.org/2000/svg">
<rect width="250" height="250" fill="#1C212A"/>
<rect x="83" y="143" width="34" height="16" rx="8" fill="#D6E1F6"/>
<rect x="92" y="159" width="16" height="4" fill="#D6E1F6"/>
<mask id="path-3-outside-1_2_234" maskUnits="userSpaceOnUse" x="97" y="144.5" width="8" height="14" fill="black">
<rect fill="white" x="97" y="144.5" width="8" height="14"/>
<path d="M104.45 157.5H97.3613V145.597H100.042V155.325H104.45V157.5Z"/>
</mask>
<path d="M104.45 157.5H97.3613V145.597H100.042V155.325H104.45V157.5Z" fill="#1C212A"/>
<path d="M104.45 157.5V157.6H104.55V157.5H104.45ZM97.3613 157.5H97.2613V157.6H97.3613V157.5ZM97.3613 145.597V145.497H97.2613V145.597H97.3613ZM100.042 145.597H100.142V145.497H100.042V145.597ZM100.042 155.325H99.9425V155.425H100.042V155.325ZM104.45 155.325H104.55V155.225H104.45V155.325ZM104.45 157.4H97.3613V157.6H104.45V157.4ZM97.4613 157.5V145.597H97.2613V157.5H97.4613ZM97.3613 145.697H100.042V145.497H97.3613V145.697ZM99.9425 145.597V155.325H100.142V145.597H99.9425ZM100.042 155.425H104.45V155.225H100.042V155.425ZM104.35 155.325V157.5H104.55V155.325H104.35Z" fill="#1C212A" mask="url(#path-3-outside-1_2_234)"/>
<path d="M100 143L103.464 138.5H96.5359L100 143Z" fill="#D6E1F6"/>
<rect x="133" y="143" width="34" height="16" rx="8" fill="#D6E1F6"/>
<rect x="142" y="159" width="16" height="4" fill="#D6E1F6"/>
<mask id="path-8-outside-2_2_234" maskUnits="userSpaceOnUse" x="145" y="144.5" width="11" height="14" fill="black">
<rect fill="white" x="145" y="144.5" width="11" height="14"/>
<path d="M155.347 157.5H152.268L150.417 154.437C150.278 154.205 150.145 153.997 150.018 153.814C149.891 153.632 149.761 153.477 149.628 153.35C149.501 153.217 149.365 153.117 149.221 153.051C149.083 152.979 148.931 152.943 148.765 152.943H148.042V157.5H145.361V145.597H149.611C152.5 145.597 153.944 146.676 153.944 148.834C153.944 149.249 153.881 149.634 153.753 149.988C153.626 150.336 153.446 150.652 153.214 150.934C152.981 151.216 152.699 151.46 152.367 151.665C152.041 151.869 151.675 152.03 151.271 152.146V152.179C151.449 152.235 151.62 152.326 151.786 152.453C151.952 152.575 152.113 152.719 152.268 152.885C152.423 153.051 152.569 153.231 152.708 153.424C152.851 153.612 152.981 153.798 153.098 153.98L155.347 157.5ZM148.042 147.605V150.917H149.205C149.78 150.917 150.242 150.751 150.591 150.419C150.945 150.082 151.122 149.664 151.122 149.166C151.122 148.126 150.5 147.605 149.254 147.605H148.042Z"/>
</mask>
<path d="M155.347 157.5H152.268L150.417 154.437C150.278 154.205 150.145 153.997 150.018 153.814C149.891 153.632 149.761 153.477 149.628 153.35C149.501 153.217 149.365 153.117 149.221 153.051C149.083 152.979 148.931 152.943 148.765 152.943H148.042V157.5H145.361V145.597H149.611C152.5 145.597 153.944 146.676 153.944 148.834C153.944 149.249 153.881 149.634 153.753 149.988C153.626 150.336 153.446 150.652 153.214 150.934C152.981 151.216 152.699 151.46 152.367 151.665C152.041 151.869 151.675 152.03 151.271 152.146V152.179C151.449 152.235 151.62 152.326 151.786 152.453C151.952 152.575 152.113 152.719 152.268 152.885C152.423 153.051 152.569 153.231 152.708 153.424C152.851 153.612 152.981 153.798 153.098 153.98L155.347 157.5ZM148.042 147.605V150.917H149.205C149.78 150.917 150.242 150.751 150.591 150.419C150.945 150.082 151.122 149.664 151.122 149.166C151.122 148.126 150.5 147.605 149.254 147.605H148.042Z" fill="#1C212A"/>
<path d="M155.347 157.5V157.6H155.53L155.431 157.446L155.347 157.5ZM152.268 157.5L152.182 157.552L152.211 157.6H152.268V157.5ZM150.417 154.437L150.331 154.488L150.331 154.489L150.417 154.437ZM149.628 153.35L149.556 153.419L149.559 153.422L149.628 153.35ZM149.221 153.051L149.175 153.14L149.179 153.142L149.221 153.051ZM148.042 152.943V152.843H147.942V152.943H148.042ZM148.042 157.5V157.6H148.142V157.5H148.042ZM145.361 157.5H145.261V157.6H145.361V157.5ZM145.361 145.597V145.497H145.261V145.597H145.361ZM153.753 149.988L153.847 150.022L153.848 150.022L153.753 149.988ZM152.367 151.665L152.315 151.579L152.314 151.58L152.367 151.665ZM151.271 152.146L151.244 152.05L151.171 152.071V152.146H151.271ZM151.271 152.179H151.171V152.253L151.242 152.275L151.271 152.179ZM151.786 152.453L151.725 152.533L151.727 152.534L151.786 152.453ZM152.708 153.424L152.626 153.482L152.628 153.485L152.708 153.424ZM153.098 153.98L153.013 154.034L153.013 154.034L153.098 153.98ZM148.042 147.605V147.505H147.942V147.605H148.042ZM148.042 150.917H147.942V151.017H148.042V150.917ZM150.591 150.419L150.66 150.492L150.66 150.492L150.591 150.419ZM155.347 157.4H152.268V157.6H155.347V157.4ZM152.353 157.448L150.502 154.385L150.331 154.489L152.182 157.552L152.353 157.448ZM150.502 154.386C150.363 154.152 150.229 153.942 150.1 153.757L149.936 153.872C150.062 154.052 150.193 154.257 150.331 154.488L150.502 154.386ZM150.1 153.757C149.97 153.57 149.836 153.41 149.697 153.277L149.559 153.422C149.686 153.544 149.812 153.693 149.936 153.872L150.1 153.757ZM149.7 153.28C149.566 153.14 149.42 153.032 149.263 152.96L149.179 153.142C149.31 153.202 149.436 153.294 149.556 153.419L149.7 153.28ZM149.267 152.962C149.114 152.882 148.946 152.843 148.765 152.843V153.043C148.916 153.043 149.052 153.075 149.175 153.14L149.267 152.962ZM148.765 152.843H148.042V153.043H148.765V152.843ZM147.942 152.943V157.5H148.142V152.943H147.942ZM148.042 157.4H145.361V157.6H148.042V157.4ZM145.461 157.5V145.597H145.261V157.5H145.461ZM145.361 145.697H149.611V145.497H145.361V145.697ZM149.611 145.697C151.046 145.697 152.104 145.965 152.801 146.486C153.493 147.003 153.844 147.779 153.844 148.834H154.044C154.044 147.73 153.673 146.888 152.921 146.326C152.174 145.768 151.065 145.497 149.611 145.497V145.697ZM153.844 148.834C153.844 149.239 153.782 149.612 153.659 149.954L153.848 150.022C153.979 149.656 154.044 149.259 154.044 148.834H153.844ZM153.659 149.953C153.536 150.292 153.362 150.597 153.137 150.871L153.291 150.998C153.531 150.707 153.716 150.381 153.847 150.022L153.659 149.953ZM153.137 150.871C152.912 151.144 152.638 151.38 152.315 151.579L152.42 151.75C152.76 151.54 153.051 151.289 153.291 150.998L153.137 150.871ZM152.314 151.58C151.996 151.779 151.64 151.936 151.244 152.05L151.299 152.242C151.711 152.124 152.085 151.959 152.42 151.749L152.314 151.58ZM151.171 152.146V152.179H151.371V152.146H151.171ZM151.242 152.275C151.406 152.326 151.567 152.411 151.725 152.532L151.847 152.374C151.673 152.24 151.491 152.143 151.301 152.084L151.242 152.275ZM151.727 152.534C151.887 152.651 152.043 152.791 152.194 152.953L152.341 152.817C152.182 152.646 152.017 152.498 151.845 152.372L151.727 152.534ZM152.194 152.953C152.346 153.116 152.49 153.292 152.626 153.482L152.789 153.366C152.648 153.169 152.499 152.986 152.341 152.817L152.194 152.953ZM152.628 153.485C152.77 153.671 152.899 153.854 153.013 154.034L153.182 153.927C153.064 153.742 152.932 153.554 152.787 153.364L152.628 153.485ZM153.013 154.034L155.263 157.554L155.431 157.446L153.182 153.927L153.013 154.034ZM147.942 147.605V150.917H148.142V147.605H147.942ZM148.042 151.017H149.205V150.817H148.042V151.017ZM149.205 151.017C149.8 151.017 150.289 150.845 150.66 150.492L150.522 150.347C150.195 150.658 149.76 150.817 149.205 150.817V151.017ZM150.66 150.492C151.034 150.135 151.222 149.691 151.222 149.166H151.022C151.022 149.637 150.856 150.029 150.522 150.347L150.66 150.492ZM151.222 149.166C151.222 148.625 151.059 148.203 150.719 147.919C150.383 147.638 149.888 147.505 149.254 147.505V147.705C149.865 147.705 150.305 147.833 150.591 148.072C150.873 148.308 151.022 148.666 151.022 149.166H151.222ZM149.254 147.505H148.042V147.705H149.254V147.505Z" fill="#1C212A" mask="url(#path-8-outside-2_2_234)"/>
<path d="M150 143L153.464 138.5H146.536L150 143Z" fill="#D6E1F6"/>
<rect x="133" y="88" width="34" height="16" rx="8" fill="#D6E1F6"/>
<rect x="142" y="104" width="16" height="8" fill="#D6E1F6"/>
<mask id="path-13-outside-3_2_234" maskUnits="userSpaceOnUse" x="145" y="89.5" width="11" height="14" fill="black">
<rect fill="white" x="145" y="89.5" width="11" height="14"/>
<path d="M155.347 102.5H152.268L150.417 99.437C150.278 99.2046 150.145 98.9971 150.018 98.8145C149.891 98.6318 149.761 98.4769 149.628 98.3496C149.501 98.2168 149.365 98.1172 149.221 98.0508C149.083 97.9788 148.931 97.9429 148.765 97.9429H148.042V102.5H145.361V90.5967H149.611C152.5 90.5967 153.944 91.6758 153.944 93.834C153.944 94.249 153.881 94.6336 153.753 94.9878C153.626 95.3364 153.446 95.6519 153.214 95.9341C152.981 96.2163 152.699 96.4598 152.367 96.6646C152.041 96.8693 151.675 97.0298 151.271 97.146V97.1792C151.449 97.2345 151.62 97.3258 151.786 97.4531C151.952 97.5749 152.113 97.7188 152.268 97.8848C152.423 98.0508 152.569 98.2306 152.708 98.4243C152.851 98.6125 152.981 98.7979 153.098 98.9805L155.347 102.5ZM148.042 92.6055V95.9175H149.205C149.78 95.9175 150.242 95.7515 150.591 95.4194C150.945 95.0819 151.122 94.6641 151.122 94.166C151.122 93.1257 150.5 92.6055 149.254 92.6055H148.042Z"/>
</mask>
<path d="M155.347 102.5H152.268L150.417 99.437C150.278 99.2046 150.145 98.9971 150.018 98.8145C149.891 98.6318 149.761 98.4769 149.628 98.3496C149.501 98.2168 149.365 98.1172 149.221 98.0508C149.083 97.9788 148.931 97.9429 148.765 97.9429H148.042V102.5H145.361V90.5967H149.611C152.5 90.5967 153.944 91.6758 153.944 93.834C153.944 94.249 153.881 94.6336 153.753 94.9878C153.626 95.3364 153.446 95.6519 153.214 95.9341C152.981 96.2163 152.699 96.4598 152.367 96.6646C152.041 96.8693 151.675 97.0298 151.271 97.146V97.1792C151.449 97.2345 151.62 97.3258 151.786 97.4531C151.952 97.5749 152.113 97.7188 152.268 97.8848C152.423 98.0508 152.569 98.2306 152.708 98.4243C152.851 98.6125 152.981 98.7979 153.098 98.9805L155.347 102.5ZM148.042 92.6055V95.9175H149.205C149.78 95.9175 150.242 95.7515 150.591 95.4194C150.945 95.0819 151.122 94.6641 151.122 94.166C151.122 93.1257 150.5 92.6055 149.254 92.6055H148.042Z" fill="#1C212A"/>
<path d="M155.347 102.5V102.6H155.53L155.431 102.446L155.347 102.5ZM152.268 102.5L152.182 102.552L152.211 102.6H152.268V102.5ZM150.417 99.437L150.331 99.4882L150.331 99.4887L150.417 99.437ZM149.628 98.3496L149.556 98.4189L149.559 98.4218L149.628 98.3496ZM149.221 98.0508L149.175 98.1396L149.179 98.1416L149.221 98.0508ZM148.042 97.9429V97.8429H147.942V97.9429H148.042ZM148.042 102.5V102.6H148.142V102.5H148.042ZM145.361 102.5H145.261V102.6H145.361V102.5ZM145.361 90.5967V90.4967H145.261V90.5967H145.361ZM153.753 94.9878L153.847 95.0221L153.848 95.0216L153.753 94.9878ZM152.367 96.6646L152.315 96.5794L152.314 96.5798L152.367 96.6646ZM151.271 97.146L151.244 97.0499L151.171 97.0707V97.146H151.271ZM151.271 97.1792H151.171V97.2527L151.242 97.2746L151.271 97.1792ZM151.786 97.4531L151.725 97.5325L151.727 97.5338L151.786 97.4531ZM152.708 98.4243L152.626 98.4825L152.628 98.4851L152.708 98.4243ZM153.098 98.9805L153.013 99.0342L153.013 99.0343L153.098 98.9805ZM148.042 92.6055V92.5055H147.942V92.6055H148.042ZM148.042 95.9175H147.942V96.0175H148.042V95.9175ZM150.591 95.4194L150.66 95.4918L150.66 95.4918L150.591 95.4194ZM155.347 102.4H152.268V102.6H155.347V102.4ZM152.353 102.448L150.502 99.3853L150.331 99.4887L152.182 102.552L152.353 102.448ZM150.502 99.3859C150.363 99.1518 150.229 98.9422 150.1 98.7573L149.936 98.8716C150.062 99.0519 150.193 99.2574 150.331 99.4882L150.502 99.3859ZM150.1 98.7573C149.97 98.5703 149.836 98.4101 149.697 98.2774L149.559 98.4218C149.686 98.5437 149.812 98.6933 149.936 98.8716L150.1 98.7573ZM149.7 98.2804C149.566 98.14 149.42 98.0324 149.263 97.96L149.179 98.1416C149.31 98.202 149.436 98.2936 149.556 98.4188L149.7 98.2804ZM149.267 97.9621C149.114 97.8822 148.946 97.8429 148.765 97.8429V98.0429C148.916 98.0429 149.052 98.0754 149.175 98.1395L149.267 97.9621ZM148.765 97.8429H148.042V98.0429H148.765V97.8429ZM147.942 97.9429V102.5H148.142V97.9429H147.942ZM148.042 102.4H145.361V102.6H148.042V102.4ZM145.461 102.5V90.5967H145.261V102.5H145.461ZM145.361 90.6967H149.611V90.4967H145.361V90.6967ZM149.611 90.6967C151.046 90.6967 152.104 90.9652 152.801 91.4861C153.493 92.003 153.844 92.7794 153.844 93.834H154.044C154.044 92.7303 153.673 91.8882 152.921 91.3259C152.174 90.7677 151.065 90.4967 149.611 90.4967V90.6967ZM153.844 93.834C153.844 94.2387 153.782 94.6117 153.659 94.954L153.848 95.0216C153.979 94.6555 154.044 94.2594 154.044 93.834H153.844ZM153.659 94.9535C153.536 95.2917 153.362 95.5972 153.137 95.8705L153.291 95.9977C153.531 95.7066 153.716 95.3812 153.847 95.0221L153.659 94.9535ZM153.137 95.8705C152.912 96.1437 152.638 96.3801 152.315 96.5794L152.42 96.7497C152.76 96.5395 153.051 96.2889 153.291 95.9977L153.137 95.8705ZM152.314 96.5798C151.996 96.7792 151.64 96.936 151.244 97.0499L151.299 97.2421C151.711 97.1235 152.085 96.9594 152.42 96.7493L152.314 96.5798ZM151.171 97.146V97.1792H151.371V97.146H151.171ZM151.242 97.2746C151.406 97.3261 151.567 97.4114 151.725 97.5325L151.847 97.3738C151.673 97.2402 151.491 97.143 151.301 97.0838L151.242 97.2746ZM151.727 97.5338C151.887 97.6515 152.043 97.7911 152.194 97.953L152.341 97.8165C152.182 97.6464 152.017 97.4983 151.845 97.3725L151.727 97.5338ZM152.194 97.953C152.346 98.1157 152.49 98.2921 152.626 98.4824L152.789 98.3662C152.648 98.1691 152.499 97.9859 152.341 97.8165L152.194 97.953ZM152.628 98.4851C152.77 98.6711 152.899 98.8542 153.013 99.0342L153.182 98.9268C153.064 98.7415 152.932 98.5538 152.787 98.3636L152.628 98.4851ZM153.013 99.0343L155.263 102.554L155.431 102.446L153.182 98.9266L153.013 99.0343ZM147.942 92.6055V95.9175H148.142V92.6055H147.942ZM148.042 96.0175H149.205V95.8175H148.042V96.0175ZM149.205 96.0175C149.8 96.0175 150.289 95.845 150.66 95.4918L150.522 95.347C150.195 95.658 149.76 95.8175 149.205 95.8175V96.0175ZM150.66 95.4918C151.034 95.135 151.222 94.6909 151.222 94.166H151.022C151.022 94.6373 150.856 95.0287 150.522 95.347L150.66 95.4918ZM151.222 94.166C151.222 93.6252 151.059 93.2031 150.719 92.9189C150.383 92.6375 149.888 92.5055 149.254 92.5055V92.7055C149.865 92.7055 150.305 92.8335 150.591 93.0723C150.873 93.3083 151.022 93.6664 151.022 94.166H151.222ZM149.254 92.5055H148.042V92.7055H149.254V92.5055Z" fill="#1C212A" mask="url(#path-13-outside-3_2_234)"/>
<rect x="83" y="88" width="34" height="16" rx="8" fill="#D6E1F6"/>
<rect x="92" y="104" width="16" height="8" fill="#D6E1F6"/>
<mask id="path-17-outside-4_2_234" maskUnits="userSpaceOnUse" x="97" y="89.5" width="8" height="14" fill="black">
<rect fill="white" x="97" y="89.5" width="8" height="14"/>
<path d="M104.45 102.5H97.3613V90.5967H100.042V100.325H104.45V102.5Z"/>
</mask>
<path d="M104.45 102.5H97.3613V90.5967H100.042V100.325H104.45V102.5Z" fill="#1C212A"/>
<path d="M104.45 102.5V102.6H104.55V102.5H104.45ZM97.3613 102.5H97.2613V102.6H97.3613V102.5ZM97.3613 90.5967V90.4967H97.2613V90.5967H97.3613ZM100.042 90.5967H100.142V90.4967H100.042V90.5967ZM100.042 100.325H99.9425V100.425H100.042V100.325ZM104.45 100.325H104.55V100.225H104.45V100.325ZM104.45 102.4H97.3613V102.6H104.45V102.4ZM97.4613 102.5V90.5967H97.2613V102.5H97.4613ZM97.3613 90.6967H100.042V90.4967H97.3613V90.6967ZM99.9425 90.5967V100.325H100.142V90.5967H99.9425ZM100.042 100.425H104.45V100.225H100.042V100.425ZM104.35 100.325V102.5H104.55V100.325H104.35Z" fill="#1C212A" mask="url(#path-17-outside-4_2_234)"/>
</svg>
